<?xml version="1.0" encoding="utf-8"?>
<!-- Generator: Adobe Illustrator 16.0.4, SVG Export Plug-In . SVG Version: 6.00 Build 0)  -->
<!DOCTYPE svg PUBLIC "-//W3C//DTD SVG 1.1//EN" "http://www.w3.org/Graphics/SVG/1.1/DTD/svg11.dtd">
<svg version="1.1" id="Layer_1" xmlns="http://www.w3.org/2000/svg" xmlns:xlink="http://www.w3.org/1999/xlink" x="0px" y="0px"
	 width="200px" height="200px" viewBox="0 0 200 200" enable-background="new 0 0 200 200" xml:space="preserve">
<g>
	<g>
		<path fill="#E6613C" d="M200,100.002C200,155.227,155.229,200,100.001,200C44.774,200,0,155.227,0,100.002
			C0,44.774,44.774,0,100.001,0C155.229,0,200,44.774,200,100.002z"/>
		<g>
			<ellipse fill="#FFFFFF" cx="160.229" cy="105.842" rx="12.054" ry="11.747"/>
			<polyline fill="#FFFFFF" points="149.54,111.275 160.229,132.448 170.916,111.275 			"/>
			<path fill-rule="evenodd" clip-rule="evenodd" fill="#E6613C" d="M166.969,100.35c0-0.106-0.022-0.213-0.041-0.348
				c-1.215,0.12-2.387,0.25-3.562,0.356c-1.981,0.182-3.97,0.348-5.951,0.524c-0.562,0.051-0.567,0.058-0.567,0.604
				c0,2.069,0.002,4.137,0.002,6.204c0,0.361,0,0.715,0,1.078c-0.405-0.037-0.764-0.115-1.11-0.086
				c-0.354,0.03-0.707,0.135-1.041,0.258c-1.342,0.502-1.996,2.147-1.03,3.369c0.678,0.856,1.604,1.133,2.666,1.002
				c1.264-0.156,2.299-1.149,2.276-2.457c-0.037-1.955-0.011-3.91-0.009-5.866c0-0.649,0.002-0.649,0.687-0.757
				c0.099-0.016,0.197-0.055,0.297-0.063c1.767-0.159,3.533-0.313,5.299-0.479c0.244-0.024,0.343,0.025,0.334,0.295
				c-0.014,0.927,0,1.854,0.005,2.781c0,0.272,0,0.543,0,0.86c-0.236-0.032-0.412-0.058-0.586-0.082
				c-0.705-0.103-1.361,0.035-1.951,0.414c-1.213,0.783-1.51,2.228-0.545,3.299c0.51,0.567,1.146,0.847,1.916,0.899
				c1.541,0.113,2.932-0.868,2.92-2.557C166.953,106.516,166.972,103.434,166.969,100.35z M164.924,102.6
				c-1.885,0.168-3.766,0.336-5.577,0.5c-0.133,0.006-0.198,0.008-0.265,0.013c-0.469,0.024-0.635-0.188-0.465-0.621
				c0.024-0.067,0.147-0.134,0.229-0.142c1.996-0.185,3.994-0.362,5.987-0.541c0.181-0.017,0.396-0.065,0.377,0.213
				C165.197,102.245,165.345,102.561,164.924,102.6z"/>
		</g>
		<g>
			<ellipse fill="#FFFFFF" cx="109.135" cy="153.41" rx="12.055" ry="11.747"/>
			<polyline fill="#FFFFFF" points="98.445,158.845 109.135,180.016 119.824,158.845 			"/>
			<g id="_x30_2tM1B.tif">
				<g>
					<path fill-rule="evenodd" clip-rule="evenodd" fill="#E6613C" d="M113.214,158.623c0,0.623,0,1.201,0,1.78
						c-0.004,0.623-0.51,1.146-1.153,1.147c-2.633,0.009-5.262,0.015-7.893-0.006c-0.648-0.004-1.099-0.375-1.317-0.963
						c-0.224-0.595-0.127-1.155,0.358-1.603c0.198-0.187,0.305-0.33,0.262-0.642c-0.08-0.555,0.424-0.885,1.19-0.844
						c0.088-0.256,0.031-0.369-0.278-0.42c-1.084-0.183-1.603-1.304-1.084-2.252c0.125-0.238,0.213-0.524,0.217-0.793
						c0.019-1.533,0.011-3.065,0.011-4.597c-0.002-1.299,0.909-2.208,2.235-2.202c0.235,0,0.334-0.076,0.437-0.269
						c0.637-1.188,1.894-1.828,3.252-1.674c1.267,0.139,2.313,1.045,2.696,2.291c0.045,0.147,0.203,0.325,0.349,0.366
						c1.371,0.39,1.866,1.979,0.944,3.037c-0.135,0.155-0.198,0.373-0.338,0.644c0.448,0,0.765-0.003,1.08,0.002
						c0.934,0.01,1.696,0.745,1.702,1.651c0.004,1.223,0.004,2.442,0,3.666c-0.004,0.918-0.782,1.668-1.728,1.678
						C113.863,158.625,113.572,158.623,113.214,158.623z M106.495,148.011c-0.071-0.014-0.125-0.021-0.176-0.036
						c-1.406-0.378-2.201,0.635-2.146,1.77c0.071,1.517,0.019,3.037,0.019,4.556c0,0.295-0.019,0.557-0.218,0.83
						c-0.396,0.543-0.004,1.186,0.72,1.217c0-0.147,0-0.295,0-0.442c0-1.492,0-2.983,0.002-4.478c0-0.51,0.106-0.612,0.631-0.612
						c2.103,0,4.205,0,6.305,0c0.142,0,0.279,0.004,0.418-0.009c0.646-0.045,1.078-0.467,1.091-1.062
						c0.012-0.625-0.402-1.069-1.052-1.141c-0.176-0.019-0.346-0.058-0.506-0.082c-0.256-1.496-0.991-2.353-2.133-2.515
						C108.12,145.814,107.317,146.354,106.495,148.011z M113.234,152.447c0,1.803,0,3.567,0,5.353c0.353,0,0.687,0.028,1.013-0.007
						c0.629-0.067,0.971-0.467,0.973-1.1c0.003-1.056,0.003-2.111,0-3.164c-0.002-0.651-0.36-1.031-1.03-1.078
						C113.887,152.429,113.579,152.447,113.234,152.447z M105.547,153.066c2.291,0,4.551,0,6.799,0c0-0.498,0-0.964,0-1.42
						c-2.281,0-4.533,0-6.799,0C105.547,152.121,105.547,152.578,105.547,153.066z M108.538,157.117
						c0-0.894-0.002-1.787,0.002-2.681c0-0.295-0.053-0.59-0.405-0.598c-0.386-0.011-0.435,0.297-0.435,0.608
						c0,1.784,0,3.573,0,5.36c0,0.293,0.045,0.588,0.403,0.596c0.392,0.011,0.437-0.299,0.435-0.606
						C108.536,158.904,108.538,158.011,108.538,157.117z M110.208,157.129c0-0.895-0.002-1.788,0-2.68
						c0.004-0.312-0.049-0.619-0.433-0.61c-0.352,0.008-0.407,0.299-0.407,0.596c0.004,1.789,0.004,3.574,0,5.36
						c0,0.308,0.045,0.617,0.437,0.608c0.358-0.006,0.405-0.303,0.403-0.594C110.208,158.916,110.208,158.021,110.208,157.129z
						 M111.208,157.086c0,0.906,0.002,1.812,0,2.72c-0.002,0.291,0.043,0.588,0.401,0.598c0.39,0.013,0.438-0.297,0.438-0.604
						c-0.004-1.786-0.004-3.573,0-5.36c0-0.297-0.051-0.592-0.403-0.6c-0.383-0.013-0.438,0.295-0.437,0.604
						C111.21,155.324,111.208,156.203,111.208,157.086z M106.7,159.332c0-1.687,0-3.338,0-4.991c0-0.274-0.112-0.502-0.416-0.507
						c-0.304-0.002-0.42,0.226-0.42,0.5c-0.004,0.693-0.002,1.382-0.002,2.074c0,1.024,0,2.049,0,3.104
						c0.155-0.056,0.269-0.111,0.389-0.136C106.385,159.351,106.521,159.349,106.7,159.332z M103.514,160.041
						c0.002,0.433,0.351,0.774,0.785,0.772c0.41-0.004,0.808-0.388,0.801-0.78c-0.006-0.414-0.379-0.767-0.807-0.767
						C103.852,159.269,103.51,159.608,103.514,160.041z M107.034,160.433c0-0.297-0.278-0.574-0.584-0.574
						c-0.295,0-0.582,0.295-0.573,0.588c0.004,0.273,0.28,0.533,0.569,0.539C106.77,160.992,107.03,160.744,107.034,160.433z
						 M104.321,158.772c0.166-0.205,0.347-0.334,0.328-0.426c-0.029-0.136-0.201-0.238-0.312-0.354
						c-0.106,0.112-0.272,0.215-0.302,0.346C104.016,158.433,104.178,158.565,104.321,158.772z"/>
				</g>
			</g>
		</g>
		<g>
			<ellipse fill="#FFFFFF" cx="59.526" cy="51.88" rx="12.055" ry="11.744"/>
			<polyline fill="#FFFFFF" points="48.836,57.313 59.526,78.485 70.216,57.313 			"/>
			<g id="_x31_w6GUr.tif">
				<g>
					<path fill-rule="evenodd" clip-rule="evenodd" fill="none" stroke="#E6613C" stroke-width="0.6" stroke-miterlimit="10" d="
						M51.924,47.113h14.785c-1.619,1.959-3.237,3.917-4.856,5.874c-0.393,0.473-0.792,0.94-1.173,1.419
						c-0.093,0.116-0.184,0.272-0.186,0.41c-0.013,1.512-0.008,3.022-0.008,4.598c0.179,0,0.331,0,0.484,0
						c0.942,0,1.886-0.006,2.829,0.002c0.653,0.006,0.994,0.316,0.993,0.871c0,0.536-0.326,0.856-0.957,0.86
						c-2.815,0.009-5.629,0.012-8.443,0c-0.648-0.004-0.978-0.344-0.958-0.904c0.018-0.527,0.356-0.821,0.994-0.827
						c1.069-0.008,2.142-0.002,3.271-0.002c0-0.272,0-0.522,0-0.771c0-1.23,0.007-2.458-0.007-3.688
						c-0.003-0.182-0.058-0.402-0.172-0.537L51.924,47.113z"/>
				</g>
			</g>
		</g>
		<g>
			<ellipse fill="#FFFFFF" cx="41.51" cy="113.273" rx="12.055" ry="11.743"/>
			<polyline fill="#FFFFFF" points="30.82,118.705 41.509,139.878 52.199,118.705 			"/>
			<g id="erbX4l.tif">
				<g>
					<path fill-rule="evenodd" clip-rule="evenodd" fill="#E6613C" d="M42.572,108.82c0.673-0.153,1.106,0.097,1.383,0.718
						c0.165,0.371,0.428,0.702,0.658,1.067c0.386-0.226,0.755-0.467,1.151-0.656c0.884-0.42,1.82-0.338,2.746-0.186
						c0.572,0.092,1.137,0.229,1.701,0.362c0.611,0.147,0.858,0.416,0.765,1.008c-0.117,0.74-0.304,1.476-0.506,2.201
						c-0.112,0.396-0.376,0.519-0.732,0.448c-0.33-0.069-0.547-0.409-0.494-0.807c0.058-0.431,0.131-0.863,0.195-1.281
						c-0.706-0.226-0.909-0.178-0.938,0.332c-0.059,1.013-0.373,2.039,0.276,3.019c0.33,0.496,0.492,1.092,0.745,1.68
						c-0.323,0.461-0.922,0.49-1.449,0.791c0.095,0.703,0.197,1.44,0.291,2.181c0.039,0.312,0.071,0.625,0.091,0.94
						c0.022,0.342-0.072,0.631-0.463,0.729c-0.375,0.088-0.785-0.121-0.909-0.535c-0.17-0.571-0.294-1.159-0.424-1.743
						c-0.102-0.455-0.187-0.918-0.286-1.402c-0.315-0.096-0.61-0.184-0.976-0.297c0.108,0.744,0.21,1.418,0.304,2.093
						c0.017,0.122,0.025,0.252,0.014,0.379c-0.03,0.368-0.296,0.678-0.63,0.743c-0.357,0.074-0.656-0.079-0.814-0.504
						c-0.209-0.562-0.369-1.139-0.532-1.713c-0.103-0.364-0.115-0.763-0.27-1.099c-0.252-0.559-0.043-0.975,0.304-1.383
						c0.372-0.438,0.737-0.883,1.116-1.313c0.415-0.469,0.687-0.979,0.596-1.627c-0.037-0.272-0.007-0.553-0.007-0.892
						c-0.34,0.164-0.607,0.279-0.86,0.414c-0.315,0.177-0.624,0.067-0.785-0.151c-0.638-0.875-1.188-1.801-1.475-2.849
						c-0.039-0.143,0.012-0.313,0.019-0.473C42.442,108.952,42.507,108.887,42.572,108.82z"/>
					<path fill-rule="evenodd" clip-rule="evenodd" fill="#E6613C" d="M42.572,108.82c-0.064,0.066-0.129,0.132-0.195,0.195
						c-0.559,0.603-1.136,1.194-1.677,1.815c-0.136,0.155-0.184,0.399-0.233,0.608c-0.177,0.767-0.307,1.543-0.516,2.299
						c-0.124,0.455-0.04,0.795,0.277,1.119c0.288,0.301,0.552,0.623,0.846,0.916c0.354,0.354,0.531,0.754,0.573,1.26
						c0.065,0.812,0.227,1.617,0.324,2.426c0.046,0.375,0.042,0.757,0.056,1.136c0.014,0.39-0.128,0.68-0.55,0.778
						c-0.437,0.097-0.856-0.103-1.026-0.522c-0.105-0.262-0.164-0.543-0.221-0.821c-0.146-0.738-0.288-1.479-0.421-2.22
						c-0.087-0.473-0.414-0.771-0.759-1.063c-0.534-0.459-1.049-0.942-1.599-1.383c-0.548-0.44-0.648-0.994-0.515-1.623
						c0.164-0.764,0.352-1.524,0.529-2.291c-0.77-0.159-0.981-0.092-1.244,0.472c-0.185,0.399-0.293,0.832-0.48,1.231
						c-0.117,0.248-0.275,0.517-0.492,0.67c-0.442,0.313-1.009,0.039-1.079-0.491c-0.02-0.156-0.032-0.322,0.009-0.47
						c0.219-0.789,0.451-1.573,0.691-2.354c0.115-0.368,0.397-0.534,0.785-0.612c1.102-0.224,2.198-0.478,3.296-0.729
						c0.112-0.024,0.215-0.106,0.319-0.164l-0.015,0.013c0.535,0.024,0.917-0.246,1.26-0.607c0.813-0.856,1.626-1.713,2.454-2.555
						c0.505-0.515,0.984-0.619,1.342-0.34c0.386,0.301,0.312,0.797-0.209,1.389c-0.423,0.478-0.854,0.949-1.265,1.435
						C42.721,108.473,42.66,108.661,42.572,108.82z"/>
					<path fill-rule="evenodd" clip-rule="evenodd" fill="#E6613C" d="M38.303,116.666c-0.626,0.935-1.223,1.826-1.817,2.724
						c-0.352,0.528-0.683,1.071-1.054,1.582c-0.377,0.519-1.005,0.565-1.413,0.151c-0.323-0.328-0.29-0.668-0.075-1.037
						c0.399-0.684,0.783-1.377,1.18-2.062c0.524-0.898,1.057-1.789,1.651-2.795C37.319,115.738,37.794,116.188,38.303,116.666z"/>
					<path fill-rule="evenodd" clip-rule="evenodd" fill="#E6613C" d="M39.27,109.001c-1.092,0.022-1.569-0.237-1.869-0.987
						c-0.231-0.58-0.02-1.054,0.374-1.461c0.414-0.431,0.974-0.554,1.515-0.361c0.523,0.185,0.909,0.543,0.989,1.168
						c0.104,0.843-0.42,1.259-1.024,1.654L39.27,109.001z"/>
					<path fill-rule="evenodd" clip-rule="evenodd" fill="#E6613C" d="M45.463,108.096c-0.016-0.884,0.458-1.39,1.319-1.397
						c0.885-0.011,1.438,0.473,1.473,1.29c0.032,0.734-0.62,1.41-1.371,1.427C46.02,109.434,45.478,108.93,45.463,108.096z"/>
				</g>
			</g>
		</g>
		<g>
			<ellipse fill="#FFFFFF" cx="137.484" cy="47.564" rx="12.056" ry="11.744"/>
			<polyline fill="#FFFFFF" points="126.795,52.997 137.483,74.169 148.175,52.997 			"/>
		</g>
		<g id="hsotQu.tif">
			<g>
				<path fill-rule="evenodd" clip-rule="evenodd" fill="#E6613C" stroke="#E6613A" stroke-width="0.2" stroke-miterlimit="10" d="
					M132.59,42.789c1.312,0,2.59,0,3.899,0c0,0.145,0,0.286,0,0.425c0,2.168-0.006,4.338,0.002,6.508
					c0.002,0.507-0.129,0.968-0.428,1.376c-0.254,0.345-0.531,0.677-0.804,1.009c-0.307,0.37-0.448,0.776-0.444,1.264
					c0.017,1.866,0.008,3.729,0.008,5.598c0,0.432,0.203,0.63,0.652,0.63c0.42,0,0.838-0.008,1.256,0.005
					c0.098,0.006,0.228,0.069,0.278,0.147c0.041,0.069,0.029,0.216-0.022,0.286c-0.054,0.065-0.185,0.105-0.28,0.105
					c-1.091,0.006-2.183,0.006-3.271,0.006c-0.363,0-0.726,0-1.086-0.002c-0.211-0.002-0.315-0.089-0.322-0.26
					c-0.004-0.175,0.111-0.287,0.318-0.288c0.426-0.004,0.852,0,1.276,0c0.422,0,0.633-0.201,0.633-0.613
					c0.004-1.292,0-2.585,0-3.875c0-0.583-0.017-1.165,0.008-1.745c0.019-0.477-0.131-0.884-0.434-1.246
					c-0.24-0.291-0.479-0.577-0.711-0.871c-0.363-0.469-0.537-0.987-0.533-1.583c0.015-2.216,0.004-4.428,0.004-6.639
					C132.59,42.954,132.59,42.882,132.59,42.789z M134.541,52.092c0.312-0.369,0.629-0.729,0.926-1.104
					c0.279-0.346,0.461-0.733,0.459-1.19c-0.006-1.365-0.002-2.73-0.002-4.099c0-0.064-0.008-0.128-0.013-0.191
					c-0.926,0-1.831,0-2.756,0c0,0.069,0,0.129,0,0.191c-0.002,1.312,0.011,2.621-0.006,3.932c-0.008,0.535,0.155,0.994,0.494,1.402
					C133.938,51.388,134.239,51.737,134.541,52.092z M135.914,43.349c-0.921,0-1.83,0-2.748,0c0,0.531,0,1.053,0,1.584
					c0.922,0,1.83,0,2.748,0C135.914,44.4,135.914,43.878,135.914,43.349z"/>
			</g>
		</g>
		<g id="hsotQu.tif_1_">
			<g>
				<path fill-rule="evenodd" clip-rule="evenodd" fill="#E6613C" stroke="#E6613A" stroke-width="0.2" stroke-miterlimit="10" d="
					M139.225,41.069c1.31,0,2.59,0,3.899,0c0,0.144,0,0.284,0,0.423c0,2.168-0.006,4.338,0.002,6.509
					c0.002,0.506-0.129,0.967-0.428,1.375c-0.254,0.345-0.531,0.677-0.806,1.009c-0.307,0.37-0.448,0.779-0.444,1.264
					c0.017,1.866,0.008,3.732,0.008,5.6c0,0.431,0.207,0.63,0.654,0.63c0.418,0,0.838-0.01,1.254,0.006
					c0.098,0.003,0.229,0.066,0.278,0.145c0.043,0.069,0.031,0.217-0.021,0.286c-0.053,0.065-0.185,0.107-0.28,0.107
					c-1.091,0.006-2.183,0.004-3.272,0.004c-0.363,0-0.724,0.002-1.086-0.002c-0.209-0.002-0.313-0.087-0.32-0.26
					c-0.004-0.175,0.109-0.286,0.32-0.286c0.424-0.006,0.848,0,1.272-0.002c0.424,0,0.635-0.201,0.635-0.613
					c0.002-1.291,0-2.583,0-3.875c0-0.582-0.017-1.163,0.006-1.743c0.021-0.479-0.131-0.886-0.432-1.248
					c-0.242-0.288-0.479-0.577-0.709-0.871c-0.365-0.469-0.539-0.987-0.535-1.583c0.013-2.213,0.004-4.427,0.004-6.639
					C139.225,41.232,139.225,41.161,139.225,41.069z M141.174,50.372c0.312-0.37,0.629-0.729,0.928-1.104
					c0.277-0.347,0.461-0.735,0.459-1.192c-0.008-1.365-0.002-2.73-0.002-4.099c0-0.063-0.006-0.127-0.012-0.19
					c-0.929,0-1.832,0-2.757,0c0,0.071,0,0.129,0,0.19c-0.002,1.312,0.009,2.621-0.006,3.932c-0.008,0.535,0.158,0.994,0.494,1.404
					C140.575,49.667,140.874,50.016,141.174,50.372z M142.549,41.628c-0.92,0-1.83,0-2.75,0c0,0.533,0,1.053,0,1.586
					c0.922,0,1.832,0,2.75,0C142.549,42.679,142.549,42.156,142.549,41.628z"/>
			</g>
		</g>
	</g>
	<g id="_x39_qMgl8.tif">
		<g>
			<path fill="#FFFFFF" d="M89.617,114.412c0,2.461-0.005,4.918,0.001,7.373c0.004,1.703,0.99,2.772,2.719,2.795
				c3.305,0.041,6.612,0.039,9.917,0c1.707-0.022,2.704-1.086,2.721-2.739c0.007-0.595,0-1.188,0-1.785
				c0-4.411,0-8.825,0.004-13.237c0-0.282-0.075-0.551,0.396-0.647c2.248-0.45,3.908-2.422,3.92-4.684
				c0.025-4.28,0.025-8.562,0-12.845c-0.012-2.037-1.432-3.857-3.403-4.523c-0.418-0.141-0.668-0.076-0.973,0.262
				c-4.09,4.547-11.223,4.498-15.263-0.097c-0.244-0.28-0.452-0.306-0.786-0.209c-2.051,0.613-3.549,2.425-3.566,4.515
				c-0.037,4.316-0.034,8.635-0.002,12.955c0.017,2.159,1.635,4.131,3.748,4.596c0.504,0.108,0.578,0.305,0.574,0.733
				C89.608,109.386,89.615,111.898,89.617,114.412z M105.573,76.202c0.008-4.482-3.712-8.125-8.32-8.141
				c-4.561-0.021-8.369,3.657-8.398,8.1c-0.029,4.477,3.744,8.142,8.384,8.144C101.868,84.305,105.567,80.714,105.573,76.202z"/>
		</g>
	</g>
	<g>
		<path fill="none" stroke="#FFFFFF" stroke-width="0.5" stroke-miterlimit="10" d="M58.963,78.595
			c0.142,1.04,0.161,2.092,0.12,3.146"/>
		<path fill="none" stroke="#FFFFFF" stroke-width="0.5" stroke-miterlimit="10" stroke-dasharray="2.9547,0.9849" d="
			M58.945,83.802c-0.369,4.285-1.017,8.481,2.465,11.871c4.076,4.37,12.637,1.989,15.898,7.15c2.445,3.971-1.224,9.53,1.223,13.9
			c2.065,2.875,6.268,5.334,10.131,6.321"/>
		<path fill="none" stroke="#FFFFFF" stroke-width="0.5" stroke-miterlimit="10" d="M89.664,123.271
			c1.114,0.213,2.179,0.289,3.133,0.205"/>
	</g>
	<path fill="none" stroke="#FFFFFF" stroke-width="0.5" stroke-miterlimit="10" stroke-dasharray="3,1" d="M96.739,122.418
		c16.848-7.415,2.717-25.948,16.305-30.715c3.806-1.059,13.588,1.06,15.219-3.707c1.631-3.177-3.261-5.296-2.175-8.473
		c0-0.529,10.31-4.295,11.396-5.354"/>
	<path fill="none" stroke="#FFFFFF" stroke-width="0.5" stroke-miterlimit="10" stroke-dasharray="3,1" d="M96.74,120.828
		c-1.631,7.416-2.174,12.71-9.24,14.829c-9.783,3.178-11.958-4.237-19.022-6.356c-9.241-2.647-5.436,5.828-11.415,10.592
		c-3.805,3.178-11.413,4.237-14.675-0.526"/>
	<path fill="none" stroke="#FFFFFF" stroke-width="0.5" stroke-miterlimit="10" stroke-dasharray="3,1" d="M98.37,120.3
		c-1.087,10.061,5.98,9.532,13.588,11.65c11.413,3.179,6.522,6.354,12.501,13.237c5.979,7.946,16.307,4.237,10.873,16.947
		c-4.894,11.121-19.025,7.414-25.005,16.415"/>
	<path fill="none" stroke="#FFFFFF" stroke-width="0.5" stroke-miterlimit="10" stroke-dasharray="3,1" d="M100.001,122.418
		c1.631-3.706,6.521-9.534,10.873-9.003c4.892,0.53,2.715,3.706,5.976,5.825c10.329,9.004,7.066-1.588,16.306-0.528
		c7.067,1.057,3.263,12.177,7.067,16.945c8.151,10.592,23.372,8.473,22.281-4.769"/>
	<ellipse fill-rule="evenodd" clip-rule="evenodd" fill="#E6613C" cx="60.335" cy="52.255" rx="0.809" ry="0.79"/>
</g>
</svg>
