<?xml version="1.0" encoding="utf-8"?>
<!-- Generator: Adobe Illustrator 16.0.4, SVG Export Plug-In . SVG Version: 6.00 Build 0)  -->
<!DOCTYPE svg PUBLIC "-//W3C//DTD SVG 1.1//EN" "http://www.w3.org/Graphics/SVG/1.1/DTD/svg11.dtd">
<svg version="1.1" id="Layer_1" xmlns="http://www.w3.org/2000/svg" xmlns:xlink="http://www.w3.org/1999/xlink" x="0px" y="0px"
	 width="200px" height="200px" viewBox="0 0 200 200" enable-background="new 0 0 200 200" xml:space="preserve">
<g>
	<g>
		<path fill="#E6613C" d="M200,100.002C200,155.227,155.229,200,100.001,200C44.774,200,0,155.227,0,100.002
			C0,44.774,44.774,0,100.001,0C155.229,0,200,44.774,200,100.002z"/>
	</g>
</g>
<g>
	<path fill="#FFFFFF" d="M147.991,110.374c-4.773,0-8.656-3.883-8.656-8.656c0-4.772,3.883-8.654,8.656-8.654
		c4.771,0,8.654,3.882,8.654,8.654C156.646,106.491,152.763,110.374,147.991,110.374z M147.991,95.194
		c-3.598,0-6.525,2.927-6.525,6.523c0,3.598,2.928,6.525,6.525,6.525s6.523-2.928,6.523-6.525
		C154.515,98.121,151.589,95.194,147.991,95.194z"/>
</g>
<g>
	<path fill="#FFFFFF" d="M147.991,137.837c-4.773,0-8.656-3.883-8.656-8.654c0-4.773,3.883-8.656,8.656-8.656
		c4.771,0,8.654,3.883,8.654,8.656C156.646,133.954,152.763,137.837,147.991,137.837z M147.991,122.657
		c-3.598,0-6.525,2.928-6.525,6.525s2.928,6.523,6.525,6.523s6.523-2.926,6.523-6.523S151.589,122.657,147.991,122.657z"/>
</g>
<g>
	<path fill="#FFFFFF" d="M147.991,164.245c-4.773,0-8.656-3.883-8.656-8.654c0-4.773,3.883-8.656,8.656-8.656
		c4.771,0,8.654,3.883,8.654,8.656C156.646,160.362,152.763,164.245,147.991,164.245z M147.991,149.065
		c-3.598,0-6.525,2.928-6.525,6.525s2.928,6.523,6.525,6.523s6.523-2.926,6.523-6.523S151.589,149.065,147.991,149.065z"/>
</g>
<g id="a8TeVM.tif">
	<g>
		<g>
			<path fill="#FFFFFF" d="M55.098,90.298c0.477,0,0.953,0,1.428,0c0.279,0.034,0.558,0.067,0.834,0.104
				c2.243,0.321,4.232,1.209,5.935,2.701c2.11,1.848,3.383,4.162,3.808,6.938c0.05,0.32,0.087,0.643,0.131,0.963
				c0,0.477,0,0.953,0,1.43c-0.015,0.07-0.036,0.144-0.044,0.214c-0.142,1.786-0.662,3.452-1.606,4.972
				c-1.816,2.919-4.417,4.713-7.805,5.344c-0.412,0.077-0.834,0.12-1.252,0.179c-0.475,0-0.951,0-1.428,0
				c-0.064-0.015-0.127-0.035-0.193-0.042c-1.43-0.107-2.797-0.46-4.074-1.111c-3.436-1.747-5.535-4.513-6.264-8.302
				c-0.079-0.417-0.118-0.835-0.177-1.253c0-0.477,0-0.953,0-1.43c0.015-0.077,0.038-0.156,0.044-0.235
				c0.089-1.172,0.341-2.308,0.813-3.384c1.665-3.791,4.526-6.109,8.598-6.91C54.258,90.394,54.68,90.356,55.098,90.298z
				 M51.134,100.6c-0.376,0.065-0.539,0.21-0.589,0.601c-0.104,0.769,0.131,1.435,0.645,2.009c0.073,0.081,0.146,0.17,0.191,0.269
				c0.591,1.252,1.28,2.432,2.464,3.252c-0.279,0.646-0.626,1.236-1.145,1.711c-0.325,0.299-0.697,0.49-1.138,0.569
				c-0.533,0.096-1.062,0.221-1.588,0.34c-0.185,0.039-0.364,0.1-0.595,0.166c2.229,1.68,4.682,2.387,7.4,2.153
				c2.01-0.177,3.816-0.891,5.41-2.161c-0.587-0.165-1.167-0.311-1.754-0.429c-0.466-0.094-0.934-0.163-1.323-0.475
				c-0.618-0.497-1.02-1.148-1.317-1.84c0.32-0.295,0.641-0.562,0.922-0.863c0.658-0.703,1.107-1.542,1.517-2.403
				c0.05-0.104,0.121-0.202,0.2-0.287c0.475-0.504,0.688-1.109,0.676-1.785c-0.01-0.539-0.181-0.733-0.647-0.845
				c0.006-0.048,0.017-0.098,0.019-0.148c0.038-0.734,0.129-1.469,0.104-2.199c-0.052-1.5-0.818-2.572-2.146-3.246
				c-1.221-0.616-2.511-0.714-3.843-0.477c-0.703,0.127-1.348,0.389-1.943,0.791c-1.203,0.816-1.656,2-1.648,3.394
				C51.012,99.325,51.086,99.953,51.134,100.6z"/>
		</g>
	</g>
</g>
<g id="Pb2SCL.tif">
	<g>
		<g>
			<path fill="#FFFFFF" d="M55.086,117.567c0.482,0,0.97,0,1.452,0c0.281,0.035,0.564,0.066,0.849,0.108
				c2.278,0.324,4.301,1.226,6.035,2.744c2.145,1.88,3.438,4.232,3.872,7.055c0.05,0.326,0.09,0.655,0.133,0.982
				c0,0.482,0,0.969,0,1.452c-0.015,0.072-0.038,0.146-0.043,0.221c-0.146,1.814-0.674,3.51-1.638,5.054
				c-1.846,2.97-4.491,4.79-7.935,5.432c-0.422,0.081-0.849,0.122-1.273,0.183c-0.482,0-0.97,0-1.452,0
				c-0.067-0.015-0.129-0.037-0.196-0.044c-1.457-0.107-2.847-0.466-4.145-1.127c-3.492-1.779-5.626-4.591-6.37-8.444
				c-0.079-0.421-0.119-0.85-0.179-1.273c0-0.483,0-0.97,0-1.452c0.015-0.082,0.038-0.161,0.043-0.242
				c0.094-1.189,0.35-2.347,0.831-3.439c1.691-3.854,4.601-6.211,8.739-7.029C54.232,117.665,54.661,117.628,55.086,117.567z
				 M57.81,122.699c-0.021-0.015-0.031-0.02-0.035-0.025c-0.038-0.048-0.075-0.096-0.11-0.144c-0.356-0.456-0.816-0.745-1.396-0.795
				c-1.288-0.11-2.53,0.083-3.712,0.618c-1.109,0.504-1.827,1.323-2.066,2.547c-0.343,1.741-0.314,3.471,0.167,5.18
				c0.114,0.405,0.123,0.775,0.027,1.173c-0.272,1.124-0.863,1.969-2.004,2.35c-0.027,0.006-0.048,0.027-0.108,0.068
				c0.418,0.156,0.799,0.318,1.196,0.441c0.741,0.235,1.496,0.352,2.276,0.204c0.579-0.108,1.074-0.381,1.504-0.778
				c0.142,0.087,0.269,0.164,0.396,0.239c-0.165,0.576-0.714,1.413-1.18,1.812c-0.293,0.25-0.626,0.403-1.011,0.479
				c-0.554,0.108-1.105,0.233-1.654,0.374c-0.36,0.094-0.714,0.221-1.086,0.34c1.64,1.537,4.526,2.836,7.78,2.518
				c2.193-0.212,4.126-1.038,5.795-2.518c-0.737-0.235-1.471-0.431-2.206-0.618c-0.443-0.114-0.916-0.121-1.307-0.408
				c-0.687-0.499-1.086-1.196-1.413-1.968c0.141-0.086,0.268-0.158,0.397-0.233c0.367,0.341,0.77,0.591,1.24,0.712
				c1.334,0.335,2.528-0.117,3.739-0.66c-0.062-0.035-0.091-0.061-0.123-0.07c-0.974-0.311-1.569-0.991-1.869-1.941
				c-0.129-0.408-0.26-0.818-0.168-1.264c0.36-1.776,0.584-3.566,0.333-5.381c-0.112-0.826-0.437-1.568-1.047-2.162
				c-0.343-0.335-0.747-0.53-1.242-0.514C58.507,122.287,58.155,122.47,57.81,122.699z"/>
		</g>
	</g>
</g>
<g id="Pb2SCL.tif_1_">
	<g>
		<g>
			<path fill="#FFFFFF" d="M55.086,143.976c0.482,0,0.97,0,1.452,0c0.281,0.035,0.564,0.066,0.849,0.108
				c2.278,0.324,4.301,1.226,6.035,2.744c2.145,1.879,3.438,4.232,3.872,7.055c0.05,0.326,0.09,0.655,0.133,0.981
				c0,0.483,0,0.97,0,1.453c-0.015,0.072-0.038,0.146-0.043,0.218c-0.146,1.816-0.674,3.513-1.638,5.057
				c-1.846,2.968-4.491,4.79-7.935,5.431c-0.422,0.079-0.849,0.125-1.273,0.184c-0.482,0-0.97,0-1.452,0
				c-0.067-0.017-0.129-0.037-0.196-0.044c-1.457-0.108-2.847-0.466-4.145-1.128c-3.492-1.778-5.626-4.59-6.37-8.443
				c-0.079-0.421-0.119-0.85-0.179-1.273c0-0.483,0-0.97,0-1.453c0.015-0.081,0.038-0.16,0.043-0.241
				c0.094-1.19,0.35-2.347,0.831-3.439c1.691-3.854,4.601-6.211,8.739-7.029C54.232,144.071,54.661,144.036,55.086,143.976z
				 M57.81,149.106c-0.021-0.015-0.031-0.019-0.035-0.024c-0.038-0.048-0.075-0.096-0.11-0.144
				c-0.356-0.456-0.816-0.745-1.396-0.795c-1.288-0.11-2.53,0.083-3.712,0.618c-1.109,0.503-1.827,1.323-2.066,2.547
				c-0.343,1.741-0.314,3.471,0.167,5.179c0.114,0.406,0.123,0.776,0.027,1.174c-0.272,1.124-0.863,1.969-2.004,2.348
				c-0.027,0.008-0.048,0.028-0.108,0.07c0.418,0.156,0.799,0.318,1.196,0.441c0.741,0.235,1.496,0.35,2.276,0.204
				c0.579-0.108,1.074-0.381,1.504-0.776c0.142,0.085,0.269,0.162,0.396,0.237c-0.165,0.578-0.714,1.415-1.18,1.812
				c-0.293,0.249-0.626,0.403-1.011,0.479c-0.554,0.107-1.105,0.234-1.654,0.374c-0.36,0.094-0.714,0.223-1.086,0.34
				c1.64,1.537,4.526,2.836,7.78,2.518c2.193-0.213,4.126-1.038,5.795-2.518c-0.737-0.235-1.471-0.434-2.206-0.618
				c-0.443-0.114-0.916-0.121-1.307-0.408c-0.687-0.497-1.086-1.196-1.413-1.969c0.141-0.085,0.268-0.158,0.397-0.232
				c0.367,0.341,0.77,0.593,1.24,0.711c1.334,0.336,2.528-0.116,3.739-0.659c-0.062-0.035-0.091-0.061-0.123-0.07
				c-0.974-0.311-1.569-0.991-1.869-1.941c-0.129-0.408-0.26-0.818-0.168-1.264c0.36-1.777,0.584-3.566,0.333-5.381
				c-0.112-0.826-0.437-1.569-1.047-2.162c-0.343-0.335-0.747-0.53-1.242-0.514C58.507,148.695,58.155,148.878,57.81,149.106z"/>
		</g>
	</g>
</g>
<g>
	<line fill="#FFFFFF" x1="74.165" y1="101.718" x2="126.452" y2="101.718"/>
	<rect x="74.165" y="100.652" fill="#FFFFFF" width="52.287" height="2.131"/>
</g>
<g>
	<line fill="#FFFFFF" x1="74.165" y1="129.183" x2="131.23" y2="129.183"/>
	<rect x="74.165" y="128.117" fill="#FFFFFF" width="57.065" height="2.131"/>
</g>
<g>
	<line fill="#FFFFFF" x1="74.165" y1="155.591" x2="128.671" y2="155.591"/>
	<rect x="74.165" y="154.525" fill="#FFFFFF" width="54.506" height="2.131"/>
</g>
<g>
	<polygon fill="#FFFFFF" points="147.411,159.823 143.076,155.489 144.583,153.982 147.411,156.811 151.397,152.823 152.904,154.33 
			"/>
</g>
<g>
	<polygon fill="#FFFFFF" points="147.411,106.443 143.076,102.111 144.583,100.604 147.411,103.431 151.397,99.445 152.904,100.952 
			"/>
</g>
<g>
	<path fill="#FFFFFF" d="M155.091,80.26H43.471c-7.192,0-13.045-5.852-13.045-13.043V47.922c0-7.191,5.853-13.043,13.045-13.043
		h111.62c7.191,0,13.043,5.852,13.043,13.043v19.295C168.134,74.409,162.282,80.26,155.091,80.26z M43.471,37.01
		c-6.018,0-10.914,4.895-10.914,10.912v19.295c0,6.017,4.896,10.912,10.914,10.912h111.62c6.019,0,10.912-4.896,10.912-10.912
		V47.922c0-6.017-4.894-10.912-10.912-10.912H43.471z"/>
</g>
<g>
	<path fill="#FFFFFF" d="M49.38,67.161c-5.288,0-9.59-4.302-9.59-9.591c0-5.288,4.302-9.59,9.59-9.59c5.29,0,9.593,4.302,9.593,9.59
		C58.973,62.859,54.669,67.161,49.38,67.161z M49.38,50.111c-4.114,0-7.459,3.346-7.459,7.459c0,4.114,3.346,7.46,7.459,7.46
		c4.115,0,7.462-3.346,7.462-7.46C56.842,53.457,53.495,50.111,49.38,50.111z"/>
</g>
<g>
	<path fill="#FFFFFF" d="M48.236,61.301c0-0.154,0.029-0.297,0.087-0.431c0.058-0.133,0.137-0.248,0.237-0.345
		c0.1-0.1,0.219-0.177,0.356-0.235c0.137-0.058,0.287-0.087,0.452-0.087c0.158,0,0.306,0.029,0.443,0.087
		c0.137,0.059,0.256,0.135,0.36,0.235c0.102,0.098,0.183,0.212,0.239,0.345c0.058,0.133,0.087,0.277,0.087,0.431
		c0,0.154-0.029,0.3-0.087,0.435c-0.056,0.133-0.137,0.252-0.239,0.35c-0.104,0.098-0.223,0.175-0.36,0.231
		c-0.138,0.056-0.285,0.083-0.443,0.083c-0.165,0-0.314-0.027-0.452-0.083s-0.256-0.133-0.356-0.231
		c-0.1-0.098-0.179-0.216-0.237-0.35C48.265,61.601,48.236,61.456,48.236,61.301z M50.318,52.949v3.675
		c0,0.394-0.025,0.785-0.07,1.174c-0.048,0.387-0.11,0.782-0.188,1.184h-1.349c-0.077-0.402-0.139-0.797-0.187-1.184
		c-0.048-0.389-0.071-0.78-0.071-1.174v-3.675H50.318z"/>
</g>
<g>
	<path fill="#FFFFFF" d="M64.483,47.578c0.029,0.004,0.052,0.011,0.073,0.021c0.021,0.012,0.044,0.027,0.064,0.046
		c0.021,0.021,0.044,0.045,0.067,0.075l3.758,4.892c-0.006-0.079-0.01-0.156-0.015-0.229c-0.004-0.075-0.006-0.146-0.006-0.212
		V47.57h0.77v6.497h-0.439c-0.071,0-0.129-0.013-0.175-0.036c-0.048-0.025-0.094-0.066-0.14-0.123l-3.758-4.892
		c0.006,0.077,0.01,0.15,0.015,0.223c0.002,0.073,0.004,0.14,0.004,0.2v4.628h-0.77V47.57h0.454
		C64.422,47.57,64.456,47.572,64.483,47.578z"/>
	<path fill="#FFFFFF" d="M71.341,49.474v2.93c0,0.348,0.079,0.616,0.239,0.805c0.158,0.191,0.399,0.287,0.726,0.287
		c0.235,0,0.458-0.056,0.666-0.168c0.21-0.112,0.402-0.269,0.577-0.466v-3.387h0.807v4.592h-0.48c-0.115,0-0.188-0.056-0.219-0.168
		l-0.062-0.493c-0.2,0.22-0.424,0.397-0.672,0.533s-0.531,0.202-0.851,0.202c-0.252,0-0.472-0.042-0.664-0.125
		c-0.193-0.083-0.354-0.2-0.482-0.352c-0.131-0.15-0.229-0.333-0.293-0.547c-0.064-0.216-0.098-0.454-0.098-0.711v-2.93H71.341z"/>
	<path fill="#FFFFFF" d="M78.953,54.066c-0.114,0-0.188-0.056-0.219-0.168l-0.073-0.558c-0.195,0.239-0.42,0.431-0.672,0.574
		c-0.252,0.144-0.541,0.214-0.868,0.214c-0.265,0-0.501-0.05-0.716-0.15c-0.217-0.102-0.397-0.252-0.549-0.447
		c-0.152-0.196-0.269-0.441-0.35-0.735c-0.082-0.293-0.123-0.63-0.123-1.011c0-0.337,0.046-0.653,0.138-0.945
		c0.089-0.291,0.22-0.545,0.389-0.759c0.168-0.214,0.376-0.383,0.624-0.506c0.246-0.123,0.522-0.183,0.83-0.183
		c0.281,0,0.522,0.048,0.724,0.144c0.2,0.094,0.379,0.229,0.537,0.4v-2.547h0.807v6.677H78.953z M77.384,53.478
		c0.266,0,0.497-0.061,0.695-0.181c0.2-0.121,0.381-0.292,0.547-0.514v-2.216c-0.152-0.2-0.314-0.339-0.489-0.42
		c-0.177-0.083-0.373-0.123-0.591-0.123c-0.424,0-0.753,0.152-0.982,0.458c-0.231,0.306-0.346,0.741-0.346,1.305
		c0,0.3,0.027,0.556,0.077,0.768c0.052,0.214,0.127,0.389,0.227,0.526c0.1,0.137,0.223,0.239,0.369,0.302
		C77.035,53.446,77.199,53.478,77.384,53.478z"/>
	<path fill="#FFFFFF" d="M82.312,49.397c0.2,0,0.385,0.023,0.558,0.066c0.173,0.044,0.329,0.108,0.473,0.191h1.246v0.3
		c0,0.1-0.064,0.165-0.191,0.191l-0.52,0.071c0.102,0.198,0.154,0.416,0.154,0.658c0,0.225-0.043,0.429-0.129,0.609
		c-0.087,0.183-0.206,0.339-0.356,0.47c-0.152,0.129-0.333,0.229-0.545,0.3c-0.21,0.069-0.441,0.104-0.689,0.104
		c-0.216,0-0.42-0.027-0.612-0.077c-0.096,0.06-0.17,0.125-0.221,0.193c-0.05,0.071-0.075,0.137-0.075,0.204
		c0,0.11,0.046,0.192,0.135,0.248s0.206,0.096,0.352,0.121c0.144,0.023,0.31,0.04,0.496,0.046c0.185,0.006,0.376,0.014,0.572,0.029
		c0.194,0.013,0.385,0.038,0.57,0.071s0.352,0.087,0.498,0.162c0.144,0.075,0.262,0.179,0.35,0.312
		c0.089,0.133,0.135,0.306,0.135,0.518c0,0.195-0.05,0.387-0.148,0.57c-0.098,0.186-0.239,0.348-0.424,0.491
		c-0.183,0.144-0.41,0.26-0.676,0.346c-0.269,0.085-0.57,0.129-0.905,0.129s-0.628-0.033-0.88-0.1
		c-0.25-0.066-0.458-0.156-0.624-0.266c-0.167-0.112-0.292-0.241-0.375-0.389c-0.083-0.146-0.125-0.3-0.125-0.46
		c0-0.227,0.071-0.418,0.212-0.574c0.144-0.158,0.337-0.283,0.581-0.376c-0.135-0.061-0.244-0.142-0.321-0.244
		c-0.079-0.1-0.119-0.237-0.119-0.41c0-0.066,0.013-0.135,0.036-0.206c0.025-0.071,0.062-0.142,0.112-0.21
		c0.05-0.071,0.11-0.137,0.183-0.2c0.073-0.064,0.158-0.119,0.254-0.168c-0.227-0.127-0.404-0.295-0.531-0.508
		c-0.127-0.21-0.189-0.456-0.189-0.734c0-0.223,0.042-0.427,0.129-0.61c0.085-0.181,0.206-0.337,0.36-0.466
		c0.154-0.129,0.337-0.227,0.551-0.297C81.825,49.432,82.058,49.397,82.312,49.397z M83.766,54.316c0-0.112-0.031-0.204-0.094-0.272
		c-0.064-0.069-0.15-0.123-0.256-0.162c-0.108-0.04-0.233-0.069-0.375-0.085s-0.293-0.029-0.452-0.038s-0.318-0.019-0.483-0.027
		c-0.162-0.011-0.32-0.025-0.47-0.046c-0.17,0.079-0.308,0.177-0.416,0.295c-0.106,0.117-0.16,0.258-0.16,0.42
		c0,0.104,0.027,0.2,0.079,0.289c0.052,0.087,0.133,0.165,0.243,0.231c0.108,0.065,0.246,0.117,0.41,0.154s0.358,0.056,0.583,0.056
		c0.216,0,0.412-0.021,0.585-0.059c0.17-0.039,0.318-0.096,0.437-0.168s0.21-0.158,0.274-0.258
		C83.735,54.547,83.766,54.437,83.766,54.316z M82.312,51.823c0.165,0,0.308-0.023,0.431-0.069c0.125-0.045,0.229-0.108,0.312-0.191
		c0.085-0.081,0.15-0.179,0.192-0.291c0.042-0.113,0.062-0.237,0.062-0.375c0-0.281-0.085-0.504-0.256-0.67
		c-0.17-0.167-0.416-0.25-0.741-0.25c-0.327,0-0.574,0.083-0.745,0.25c-0.17,0.167-0.256,0.389-0.256,0.67
		c0,0.137,0.021,0.262,0.064,0.375c0.044,0.112,0.108,0.21,0.194,0.291c0.085,0.083,0.189,0.146,0.312,0.191
		C82.006,51.8,82.149,51.823,82.312,51.823z"/>
	<path fill="#FFFFFF" d="M87.235,49.401c0.274,0,0.531,0.048,0.764,0.139c0.235,0.091,0.437,0.225,0.607,0.399
		c0.171,0.173,0.306,0.387,0.402,0.643s0.146,0.545,0.146,0.872c0,0.127-0.015,0.212-0.042,0.254
		c-0.027,0.043-0.079,0.064-0.154,0.064h-3.069c0.006,0.289,0.045,0.541,0.119,0.755c0.073,0.216,0.172,0.395,0.299,0.539
		s0.277,0.25,0.452,0.321c0.177,0.071,0.373,0.108,0.591,0.108c0.202,0,0.377-0.025,0.522-0.071
		c0.148-0.048,0.272-0.098,0.379-0.152c0.106-0.054,0.195-0.106,0.266-0.152c0.071-0.048,0.131-0.071,0.183-0.071
		c0.066,0,0.119,0.025,0.154,0.077l0.227,0.295c-0.1,0.121-0.218,0.225-0.358,0.314c-0.14,0.089-0.289,0.162-0.447,0.22
		c-0.158,0.056-0.323,0.1-0.491,0.129c-0.17,0.029-0.337,0.042-0.503,0.042c-0.316,0-0.61-0.052-0.878-0.16
		c-0.266-0.106-0.497-0.265-0.693-0.471c-0.195-0.208-0.345-0.464-0.456-0.77c-0.108-0.304-0.162-0.656-0.162-1.051
		c0-0.321,0.048-0.62,0.147-0.897c0.098-0.279,0.239-0.52,0.422-0.724c0.185-0.204,0.41-0.364,0.676-0.481
		C86.604,49.459,86.902,49.401,87.235,49.401z M87.253,49.996c-0.389,0-0.697,0.112-0.919,0.337
		c-0.225,0.225-0.364,0.537-0.418,0.936h2.512c0-0.187-0.027-0.36-0.079-0.514c-0.052-0.156-0.129-0.292-0.231-0.404
		c-0.102-0.114-0.225-0.202-0.371-0.264C87.603,50.027,87.439,49.996,87.253,49.996z"/>
	<path fill="#FFFFFF" d="M90.144,53.567c0-0.077,0.014-0.152,0.043-0.221c0.029-0.071,0.069-0.131,0.121-0.183
		c0.05-0.05,0.11-0.091,0.179-0.121c0.066-0.031,0.142-0.046,0.225-0.046c0.077,0,0.152,0.015,0.219,0.046
		c0.068,0.029,0.129,0.071,0.179,0.121c0.052,0.052,0.094,0.112,0.123,0.183c0.031,0.069,0.046,0.144,0.046,0.221
		c0,0.083-0.015,0.158-0.046,0.225c-0.029,0.069-0.071,0.129-0.123,0.179c-0.05,0.052-0.11,0.091-0.179,0.121
		c-0.067,0.029-0.142,0.044-0.219,0.044c-0.083,0-0.158-0.015-0.225-0.044c-0.069-0.029-0.129-0.069-0.179-0.121
		c-0.052-0.05-0.091-0.11-0.121-0.179C90.158,53.725,90.144,53.65,90.144,53.567z M91.109,47.57v2.593
		c0,0.137-0.002,0.271-0.008,0.399c-0.006,0.131-0.015,0.26-0.023,0.392c-0.008,0.133-0.021,0.266-0.033,0.403
		c-0.015,0.138-0.029,0.285-0.048,0.443h-0.545c-0.017-0.158-0.033-0.306-0.045-0.443c-0.015-0.137-0.025-0.271-0.036-0.403
		c-0.008-0.131-0.017-0.26-0.023-0.392c-0.006-0.129-0.008-0.262-0.008-0.399V47.57H91.109z"/>
	<path fill="#FFFFFF" d="M100.353,54.066h-0.88v-2.955h-3.504v2.955H95.09V47.57h0.878v2.896h3.504V47.57h0.88V54.066z"/>
	<path fill="#FFFFFF" d="M104.604,54.066c-0.079,0-0.14-0.013-0.181-0.04c-0.042-0.025-0.075-0.075-0.101-0.15l-0.091-0.431
		c-0.121,0.108-0.239,0.206-0.356,0.292c-0.114,0.085-0.237,0.158-0.361,0.218c-0.125,0.058-0.261,0.104-0.404,0.135
		s-0.302,0.048-0.479,0.048s-0.346-0.025-0.501-0.075c-0.158-0.05-0.296-0.125-0.41-0.225c-0.116-0.1-0.21-0.225-0.277-0.378
		c-0.068-0.152-0.102-0.333-0.102-0.541c0-0.181,0.05-0.356,0.147-0.524c0.101-0.167,0.263-0.316,0.487-0.445
		c0.223-0.131,0.514-0.237,0.874-0.32c0.359-0.083,0.801-0.131,1.323-0.144v-0.358c0-0.356-0.077-0.626-0.23-0.81
		c-0.154-0.181-0.379-0.272-0.677-0.272c-0.197,0-0.366,0.025-0.499,0.075c-0.136,0.05-0.252,0.104-0.35,0.167
		s-0.184,0.119-0.254,0.168c-0.071,0.05-0.142,0.075-0.21,0.075c-0.055,0-0.103-0.015-0.142-0.044
		c-0.04-0.029-0.073-0.064-0.101-0.106l-0.144-0.258c0.254-0.246,0.526-0.429,0.82-0.549c0.293-0.121,0.618-0.181,0.974-0.181
		c0.258,0,0.485,0.042,0.685,0.127c0.2,0.085,0.368,0.202,0.504,0.354c0.135,0.152,0.239,0.333,0.308,0.549
		c0.068,0.214,0.104,0.449,0.104,0.706v2.938H104.604z M102.872,53.573c0.142,0,0.272-0.015,0.39-0.044
		c0.118-0.029,0.229-0.07,0.333-0.123c0.104-0.052,0.204-0.119,0.3-0.196c0.096-0.077,0.188-0.162,0.278-0.26V52
		c-0.37,0.011-0.688,0.042-0.949,0.087c-0.262,0.048-0.474,0.108-0.639,0.183c-0.166,0.077-0.285,0.167-0.359,0.269
		c-0.073,0.102-0.11,0.216-0.11,0.343c0,0.123,0.021,0.227,0.058,0.314c0.04,0.087,0.094,0.158,0.163,0.214
		c0.066,0.056,0.147,0.098,0.239,0.123C102.668,53.559,102.767,53.573,102.872,53.573z"/>
	<path fill="#FFFFFF" d="M106.189,54.066v-4.592h0.484c0.114,0,0.188,0.056,0.215,0.168l0.062,0.497
		c0.199-0.22,0.422-0.397,0.672-0.535c0.247-0.135,0.532-0.204,0.855-0.204c0.251,0,0.472,0.042,0.663,0.125
		c0.194,0.083,0.354,0.202,0.481,0.354c0.129,0.154,0.227,0.337,0.293,0.551s0.1,0.452,0.1,0.711v2.924h-0.812v-2.924
		c0-0.347-0.079-0.618-0.239-0.809c-0.158-0.191-0.399-0.287-0.722-0.287c-0.241,0-0.466,0.056-0.672,0.17
		c-0.208,0.117-0.397,0.271-0.57,0.468v3.381H106.189z"/>
	<path fill="#FFFFFF" d="M111.248,54.066v-4.592h0.484c0.114,0,0.188,0.056,0.215,0.168l0.062,0.497
		c0.199-0.22,0.422-0.397,0.672-0.535c0.247-0.135,0.532-0.204,0.855-0.204c0.251,0,0.472,0.042,0.663,0.125
		c0.193,0.083,0.354,0.202,0.481,0.354c0.129,0.154,0.227,0.337,0.293,0.551s0.1,0.452,0.1,0.711v2.924h-0.812v-2.924
		c0-0.347-0.079-0.618-0.239-0.809c-0.158-0.191-0.399-0.287-0.722-0.287c-0.241,0-0.466,0.056-0.672,0.17
		c-0.209,0.117-0.397,0.271-0.57,0.468v3.381H111.248z"/>
	<path fill="#FFFFFF" d="M119.226,54.066c-0.079,0-0.14-0.013-0.181-0.04c-0.042-0.025-0.075-0.075-0.1-0.15l-0.092-0.431
		c-0.121,0.108-0.239,0.206-0.356,0.292c-0.114,0.085-0.237,0.158-0.361,0.218c-0.125,0.058-0.261,0.104-0.404,0.135
		s-0.302,0.048-0.479,0.048s-0.346-0.025-0.501-0.075c-0.158-0.05-0.296-0.125-0.41-0.225c-0.116-0.1-0.21-0.225-0.277-0.378
		c-0.068-0.152-0.102-0.333-0.102-0.541c0-0.181,0.05-0.356,0.147-0.524c0.101-0.167,0.263-0.316,0.487-0.445
		c0.223-0.131,0.514-0.237,0.874-0.32c0.36-0.083,0.801-0.131,1.323-0.144v-0.358c0-0.356-0.077-0.626-0.23-0.81
		c-0.154-0.181-0.379-0.272-0.677-0.272c-0.197,0-0.366,0.025-0.499,0.075c-0.136,0.05-0.252,0.104-0.35,0.167
		s-0.184,0.119-0.254,0.168c-0.071,0.05-0.142,0.075-0.21,0.075c-0.055,0-0.103-0.015-0.142-0.044
		c-0.04-0.029-0.073-0.064-0.101-0.106l-0.144-0.258c0.254-0.246,0.526-0.429,0.82-0.549c0.293-0.121,0.618-0.181,0.974-0.181
		c0.258,0,0.485,0.042,0.685,0.127c0.2,0.085,0.368,0.202,0.504,0.354c0.135,0.152,0.239,0.333,0.308,0.549
		c0.068,0.214,0.104,0.449,0.104,0.706v2.938H119.226z M117.494,53.573c0.142,0,0.272-0.015,0.39-0.044
		c0.118-0.029,0.229-0.07,0.333-0.123c0.104-0.052,0.204-0.119,0.3-0.196c0.096-0.077,0.188-0.162,0.278-0.26V52
		c-0.37,0.011-0.688,0.042-0.949,0.087c-0.262,0.048-0.474,0.108-0.639,0.183c-0.166,0.077-0.285,0.167-0.359,0.269
		c-0.073,0.102-0.11,0.216-0.11,0.343c0,0.123,0.021,0.227,0.058,0.314c0.04,0.087,0.094,0.158,0.163,0.214
		c0.066,0.056,0.147,0.098,0.239,0.123C117.291,53.559,117.389,53.573,117.494,53.573z"/>
	<path fill="#FFFFFF" d="M122.455,49.474h0.635c0.062,0,0.116,0.017,0.16,0.05s0.073,0.073,0.09,0.119l0.878,2.955
		c0.024,0.106,0.048,0.21,0.068,0.31c0.021,0.102,0.04,0.202,0.055,0.302c0.024-0.1,0.052-0.2,0.081-0.302
		c0.031-0.1,0.062-0.204,0.096-0.31l0.97-2.974c0.017-0.045,0.041-0.083,0.079-0.112c0.039-0.031,0.085-0.045,0.139-0.045h0.354
		c0.06,0,0.11,0.014,0.149,0.045c0.04,0.029,0.066,0.067,0.081,0.112l0.947,2.974c0.031,0.106,0.058,0.21,0.087,0.312
		c0.027,0.104,0.052,0.206,0.077,0.304c0.017-0.098,0.037-0.2,0.061-0.3c0.022-0.102,0.048-0.208,0.075-0.316l0.896-2.955
		c0.017-0.048,0.044-0.089,0.087-0.121c0.042-0.031,0.092-0.048,0.15-0.048h0.605l-1.486,4.592h-0.639
		c-0.079,0-0.133-0.052-0.164-0.154l-1.016-3.115c-0.022-0.069-0.044-0.14-0.058-0.21c-0.015-0.071-0.029-0.142-0.046-0.21
		c-0.015,0.069-0.031,0.14-0.048,0.212s-0.036,0.144-0.057,0.214l-1.034,3.109c-0.027,0.102-0.087,0.154-0.181,0.154h-0.607
		L122.455,49.474z"/>
	<path fill="#FFFFFF" d="M132.93,54.066c-0.078,0-0.139-0.013-0.181-0.04c-0.042-0.025-0.075-0.075-0.1-0.15l-0.092-0.431
		c-0.12,0.108-0.239,0.206-0.355,0.292c-0.114,0.085-0.237,0.158-0.362,0.218c-0.125,0.058-0.26,0.104-0.403,0.135
		s-0.302,0.048-0.479,0.048c-0.177,0-0.345-0.025-0.501-0.075c-0.158-0.05-0.296-0.125-0.41-0.225
		c-0.116-0.1-0.21-0.225-0.276-0.378c-0.068-0.152-0.103-0.333-0.103-0.541c0-0.181,0.051-0.356,0.148-0.524
		c0.1-0.167,0.262-0.316,0.486-0.445c0.223-0.131,0.515-0.237,0.874-0.32c0.36-0.083,0.802-0.131,1.323-0.144v-0.358
		c0-0.356-0.076-0.626-0.23-0.81c-0.154-0.181-0.379-0.272-0.677-0.272c-0.197,0-0.366,0.025-0.499,0.075
		c-0.136,0.05-0.252,0.104-0.35,0.167s-0.183,0.119-0.254,0.168c-0.07,0.05-0.142,0.075-0.21,0.075
		c-0.055,0-0.103-0.015-0.142-0.044c-0.04-0.029-0.073-0.064-0.1-0.106l-0.144-0.258c0.254-0.246,0.526-0.429,0.819-0.549
		c0.294-0.121,0.618-0.181,0.974-0.181c0.259,0,0.485,0.042,0.685,0.127c0.2,0.085,0.369,0.202,0.504,0.354
		c0.136,0.152,0.239,0.333,0.308,0.549c0.069,0.214,0.104,0.449,0.104,0.706v2.938H132.93z M131.199,53.573
		c0.142,0,0.272-0.015,0.389-0.044c0.119-0.029,0.229-0.07,0.333-0.123c0.104-0.052,0.204-0.119,0.3-0.196
		c0.096-0.077,0.189-0.162,0.278-0.26V52c-0.37,0.011-0.688,0.042-0.948,0.087c-0.263,0.048-0.475,0.108-0.639,0.183
		c-0.167,0.077-0.285,0.167-0.36,0.269c-0.073,0.102-0.11,0.216-0.11,0.343c0,0.123,0.021,0.227,0.059,0.314
		c0.039,0.087,0.094,0.158,0.162,0.214c0.066,0.056,0.147,0.098,0.239,0.123C130.995,53.559,131.093,53.573,131.199,53.573z"/>
	<path fill="#FFFFFF" d="M134.516,54.066v-4.592h0.485c0.114,0,0.187,0.056,0.214,0.168l0.062,0.497
		c0.2-0.22,0.423-0.397,0.672-0.535c0.248-0.135,0.533-0.204,0.855-0.204c0.252,0,0.473,0.042,0.664,0.125
		c0.193,0.083,0.354,0.202,0.48,0.354c0.129,0.154,0.227,0.337,0.293,0.551c0.067,0.214,0.101,0.452,0.101,0.711v2.924h-0.812
		v-2.924c0-0.347-0.079-0.618-0.239-0.809c-0.158-0.191-0.399-0.287-0.723-0.287c-0.241,0-0.466,0.056-0.672,0.17
		c-0.208,0.117-0.397,0.271-0.57,0.468v3.381H134.516z"/>
	<path fill="#FFFFFF" d="M140.923,54.139c-0.364,0-0.644-0.102-0.837-0.304c-0.195-0.202-0.293-0.495-0.293-0.876V50.15h-0.554
		c-0.048,0-0.087-0.015-0.121-0.044c-0.033-0.029-0.05-0.073-0.05-0.133v-0.322l0.752-0.096l0.187-1.417
		c0.009-0.046,0.029-0.083,0.061-0.112c0.031-0.029,0.073-0.044,0.125-0.044h0.408v1.583h1.327v0.585h-1.327v2.755
		c0,0.193,0.045,0.337,0.141,0.431c0.094,0.094,0.215,0.142,0.362,0.142c0.083,0,0.158-0.013,0.219-0.036
		c0.062-0.021,0.116-0.045,0.162-0.073c0.046-0.029,0.083-0.054,0.114-0.075c0.033-0.023,0.061-0.036,0.086-0.036
		c0.041,0,0.079,0.027,0.112,0.077l0.235,0.385c-0.138,0.131-0.307,0.233-0.502,0.306C141.333,54.102,141.131,54.139,140.923,54.139
		z"/>
	<path fill="#FFFFFF" d="M145.436,50.231c-0.035,0.066-0.091,0.1-0.166,0.1c-0.046,0-0.098-0.017-0.154-0.05
		c-0.058-0.033-0.129-0.071-0.212-0.11c-0.081-0.042-0.181-0.079-0.296-0.114c-0.114-0.036-0.251-0.052-0.407-0.052
		c-0.138,0-0.258,0.017-0.368,0.052c-0.108,0.035-0.202,0.083-0.279,0.144s-0.135,0.131-0.177,0.21
		c-0.039,0.082-0.061,0.167-0.061,0.26c0,0.119,0.033,0.216,0.103,0.295c0.068,0.079,0.158,0.146,0.271,0.204
		c0.11,0.058,0.237,0.108,0.381,0.152c0.141,0.043,0.287,0.091,0.437,0.139c0.149,0.05,0.296,0.106,0.438,0.167
		c0.141,0.061,0.268,0.135,0.38,0.227c0.112,0.089,0.202,0.202,0.271,0.333c0.067,0.131,0.103,0.289,0.103,0.474
		c0,0.21-0.04,0.406-0.114,0.587c-0.075,0.179-0.188,0.335-0.335,0.466c-0.148,0.131-0.329,0.235-0.544,0.31
		c-0.216,0.077-0.464,0.114-0.744,0.114c-0.32,0-0.61-0.052-0.87-0.156s-0.48-0.239-0.662-0.401l0.189-0.308
		c0.025-0.04,0.055-0.071,0.088-0.091c0.033-0.021,0.075-0.031,0.127-0.031c0.054,0,0.112,0.021,0.173,0.062
		c0.06,0.043,0.133,0.089,0.218,0.141c0.088,0.052,0.191,0.098,0.316,0.142c0.123,0.042,0.277,0.062,0.462,0.062
		c0.156,0,0.294-0.021,0.412-0.061c0.119-0.042,0.217-0.096,0.296-0.166c0.077-0.069,0.135-0.15,0.175-0.239
		c0.037-0.092,0.056-0.188,0.056-0.292c0-0.127-0.035-0.231-0.102-0.314c-0.068-0.083-0.158-0.154-0.271-0.214
		c-0.112-0.058-0.239-0.11-0.383-0.154c-0.144-0.043-0.289-0.089-0.439-0.137c-0.149-0.048-0.297-0.104-0.441-0.167
		c-0.144-0.061-0.271-0.14-0.383-0.233c-0.11-0.094-0.201-0.208-0.268-0.346c-0.069-0.139-0.103-0.306-0.103-0.501
		c0-0.175,0.035-0.343,0.108-0.505c0.072-0.163,0.179-0.304,0.318-0.427c0.138-0.123,0.308-0.221,0.512-0.292
		c0.202-0.073,0.433-0.11,0.693-0.11c0.302,0,0.574,0.048,0.813,0.144c0.241,0.096,0.447,0.227,0.624,0.391L145.436,50.231z"/>
	<path fill="#FFFFFF" d="M150.42,54.139c-0.364,0-0.644-0.102-0.837-0.304c-0.195-0.202-0.293-0.495-0.293-0.876V50.15h-0.554
		c-0.048,0-0.088-0.015-0.121-0.044s-0.05-0.073-0.05-0.133v-0.322l0.751-0.096l0.188-1.417c0.009-0.046,0.029-0.083,0.061-0.112
		c0.031-0.029,0.073-0.044,0.125-0.044h0.407v1.583h1.328v0.585h-1.328v2.755c0,0.193,0.046,0.337,0.142,0.431
		c0.094,0.094,0.215,0.142,0.362,0.142c0.083,0,0.158-0.013,0.219-0.036c0.062-0.021,0.116-0.045,0.162-0.073
		c0.046-0.029,0.083-0.054,0.114-0.075c0.033-0.023,0.061-0.036,0.086-0.036c0.041,0,0.079,0.027,0.112,0.077l0.234,0.385
		c-0.137,0.131-0.306,0.233-0.501,0.306C150.83,54.102,150.628,54.139,150.42,54.139z"/>
	<path fill="#FFFFFF" d="M154.194,49.401c0.337,0,0.639,0.056,0.907,0.168s0.499,0.271,0.688,0.477
		c0.191,0.204,0.337,0.454,0.438,0.745c0.102,0.292,0.151,0.618,0.151,0.978c0,0.362-0.05,0.689-0.151,0.978
		c-0.101,0.289-0.246,0.539-0.438,0.743c-0.189,0.206-0.42,0.364-0.688,0.475s-0.57,0.165-0.907,0.165s-0.643-0.054-0.913-0.165
		s-0.5-0.269-0.691-0.475c-0.189-0.204-0.335-0.454-0.437-0.743c-0.103-0.289-0.152-0.616-0.152-0.978
		c0-0.36,0.05-0.687,0.152-0.978c0.102-0.291,0.247-0.541,0.437-0.745c0.191-0.206,0.421-0.364,0.691-0.477
		S153.857,49.401,154.194,49.401z M154.194,53.5c0.454,0,0.793-0.152,1.016-0.456c0.225-0.304,0.337-0.729,0.337-1.271
		c0-0.547-0.112-0.974-0.337-1.28c-0.223-0.304-0.562-0.458-1.016-0.458c-0.229,0-0.429,0.04-0.6,0.119
		c-0.17,0.079-0.313,0.191-0.427,0.339c-0.114,0.15-0.197,0.331-0.253,0.547c-0.057,0.216-0.084,0.459-0.084,0.732
		c0,0.543,0.112,0.967,0.337,1.271C153.394,53.349,153.736,53.5,154.194,53.5z"/>
	<path fill="#FFFFFF" d="M66.414,61.112c-0.036,0.066-0.092,0.1-0.167,0.1c-0.046,0-0.098-0.017-0.154-0.05
		c-0.058-0.033-0.129-0.071-0.212-0.11c-0.082-0.042-0.181-0.079-0.295-0.114c-0.115-0.036-0.252-0.052-0.408-0.052
		c-0.137,0-0.258,0.017-0.368,0.052c-0.108,0.035-0.202,0.083-0.279,0.144c-0.077,0.06-0.135,0.131-0.177,0.21
		c-0.04,0.081-0.061,0.167-0.061,0.26c0,0.119,0.033,0.216,0.102,0.295s0.158,0.146,0.271,0.204c0.11,0.058,0.237,0.108,0.381,0.152
		c0.142,0.043,0.287,0.091,0.437,0.139c0.15,0.05,0.295,0.106,0.437,0.167c0.141,0.061,0.268,0.135,0.381,0.227
		c0.112,0.089,0.202,0.202,0.271,0.333c0.066,0.131,0.102,0.29,0.102,0.475c0,0.21-0.04,0.406-0.114,0.587
		c-0.075,0.179-0.188,0.335-0.335,0.466c-0.148,0.131-0.329,0.235-0.543,0.31c-0.217,0.077-0.464,0.115-0.745,0.115
		c-0.32,0-0.61-0.052-0.87-0.156c-0.26-0.104-0.481-0.239-0.662-0.401l0.189-0.308c0.025-0.04,0.054-0.071,0.087-0.092
		c0.033-0.021,0.075-0.031,0.127-0.031c0.054,0,0.112,0.021,0.173,0.062c0.061,0.044,0.133,0.09,0.218,0.142
		c0.087,0.052,0.191,0.098,0.316,0.142c0.123,0.042,0.277,0.062,0.462,0.062c0.156,0,0.293-0.021,0.412-0.061
		c0.119-0.042,0.216-0.096,0.295-0.167c0.077-0.068,0.135-0.15,0.175-0.239c0.038-0.091,0.056-0.187,0.056-0.291
		c0-0.127-0.035-0.231-0.102-0.314c-0.068-0.083-0.158-0.154-0.271-0.214c-0.112-0.058-0.239-0.11-0.383-0.154
		c-0.144-0.044-0.289-0.089-0.439-0.137s-0.297-0.104-0.441-0.167c-0.144-0.061-0.271-0.14-0.383-0.233
		c-0.11-0.093-0.202-0.208-0.268-0.345c-0.069-0.14-0.102-0.306-0.102-0.501c0-0.175,0.035-0.343,0.108-0.506
		c0.073-0.162,0.179-0.304,0.318-0.426c0.138-0.123,0.308-0.221,0.512-0.292c0.202-0.073,0.433-0.11,0.693-0.11
		c0.302,0,0.574,0.048,0.813,0.144c0.242,0.096,0.447,0.227,0.625,0.391L66.414,61.112z"/>
	<path fill="#FFFFFF" d="M69.548,60.282c0.274,0,0.53,0.048,0.764,0.14c0.235,0.091,0.437,0.225,0.607,0.399
		c0.17,0.173,0.306,0.387,0.401,0.643s0.146,0.545,0.146,0.872c0,0.127-0.015,0.212-0.042,0.254
		c-0.027,0.044-0.079,0.064-0.154,0.064h-3.069c0.006,0.29,0.046,0.541,0.119,0.755c0.073,0.217,0.173,0.396,0.3,0.539
		s0.277,0.25,0.452,0.32c0.177,0.071,0.372,0.108,0.591,0.108c0.202,0,0.376-0.025,0.522-0.071c0.147-0.048,0.272-0.098,0.378-0.152
		c0.106-0.054,0.196-0.106,0.267-0.152c0.071-0.048,0.131-0.071,0.183-0.071c0.066,0,0.119,0.025,0.154,0.077l0.227,0.295
		c-0.1,0.121-0.219,0.225-0.358,0.314c-0.14,0.09-0.29,0.163-0.448,0.221c-0.158,0.056-0.322,0.1-0.491,0.129
		c-0.171,0.029-0.337,0.042-0.504,0.042c-0.316,0-0.609-0.052-0.878-0.161c-0.266-0.106-0.498-0.264-0.693-0.47
		c-0.196-0.208-0.346-0.464-0.456-0.77c-0.108-0.304-0.163-0.655-0.163-1.051c0-0.32,0.048-0.62,0.148-0.896
		c0.098-0.279,0.239-0.521,0.422-0.724c0.185-0.204,0.41-0.364,0.676-0.481C68.917,60.34,69.215,60.282,69.548,60.282z
		 M69.566,60.877c-0.389,0-0.697,0.112-0.92,0.337c-0.225,0.225-0.364,0.537-0.418,0.937h2.512c0-0.187-0.027-0.36-0.079-0.514
		c-0.052-0.156-0.129-0.292-0.231-0.404c-0.102-0.115-0.225-0.202-0.37-0.264C69.916,60.908,69.751,60.877,69.566,60.877z"/>
	<path fill="#FFFFFF" d="M74.333,60.282c0.275,0,0.531,0.048,0.764,0.14c0.235,0.091,0.437,0.225,0.608,0.399
		c0.17,0.173,0.306,0.387,0.401,0.643s0.146,0.545,0.146,0.872c0,0.127-0.014,0.212-0.042,0.254
		c-0.027,0.044-0.079,0.064-0.154,0.064h-3.069c0.006,0.29,0.046,0.541,0.119,0.755c0.073,0.217,0.173,0.396,0.3,0.539
		c0.126,0.144,0.276,0.25,0.451,0.32c0.177,0.071,0.373,0.108,0.591,0.108c0.202,0,0.376-0.025,0.522-0.071
		c0.148-0.048,0.273-0.098,0.379-0.152s0.195-0.106,0.266-0.152c0.071-0.048,0.131-0.071,0.183-0.071
		c0.067,0,0.119,0.025,0.154,0.077l0.227,0.295c-0.1,0.121-0.218,0.225-0.358,0.314c-0.139,0.09-0.289,0.163-0.447,0.221
		c-0.158,0.056-0.323,0.1-0.491,0.129c-0.17,0.029-0.337,0.042-0.503,0.042c-0.316,0-0.61-0.052-0.878-0.161
		c-0.267-0.106-0.498-0.264-0.693-0.47c-0.196-0.208-0.346-0.464-0.456-0.77c-0.108-0.304-0.162-0.655-0.162-1.051
		c0-0.32,0.048-0.62,0.147-0.896c0.098-0.279,0.239-0.521,0.422-0.724c0.186-0.204,0.41-0.364,0.676-0.481
		C73.703,60.34,74,60.282,74.333,60.282z M74.353,60.877c-0.389,0-0.697,0.112-0.92,0.337c-0.225,0.225-0.364,0.537-0.418,0.937
		h2.512c0-0.187-0.027-0.36-0.079-0.514c-0.052-0.156-0.129-0.292-0.231-0.404c-0.102-0.115-0.225-0.202-0.37-0.264
		C74.702,60.908,74.538,60.877,74.353,60.877z"/>
	<path fill="#FFFFFF" d="M80.732,66.302c-0.027,0.061-0.061,0.11-0.102,0.146c-0.04,0.038-0.102,0.054-0.188,0.054h-0.599
		l0.838-1.823l-1.894-4.324h0.697c0.071,0,0.125,0.019,0.167,0.052c0.04,0.035,0.068,0.073,0.083,0.117l1.228,2.892
		c0.025,0.069,0.048,0.135,0.068,0.202c0.021,0.065,0.04,0.131,0.054,0.202c0.04-0.137,0.085-0.272,0.137-0.41l1.192-2.886
		c0.017-0.048,0.048-0.09,0.092-0.121c0.043-0.031,0.093-0.048,0.147-0.048h0.639L80.732,66.302z"/>
	<path fill="#FFFFFF" d="M85.813,60.282c0.337,0,0.639,0.056,0.907,0.168c0.269,0.112,0.5,0.271,0.689,0.477
		c0.191,0.204,0.337,0.454,0.437,0.745c0.102,0.292,0.152,0.618,0.152,0.978c0,0.362-0.05,0.688-0.152,0.978
		c-0.1,0.289-0.246,0.539-0.437,0.743c-0.189,0.206-0.42,0.364-0.689,0.475c-0.268,0.11-0.57,0.165-0.907,0.165
		c-0.337,0-0.643-0.054-0.914-0.165s-0.499-0.269-0.69-0.475c-0.189-0.204-0.335-0.454-0.437-0.743
		c-0.102-0.29-0.152-0.616-0.152-0.978c0-0.36,0.05-0.687,0.152-0.978c0.102-0.292,0.248-0.541,0.437-0.745
		c0.191-0.206,0.42-0.364,0.69-0.477S85.477,60.282,85.813,60.282z M85.813,64.381c0.454,0,0.793-0.152,1.016-0.456
		c0.225-0.304,0.337-0.728,0.337-1.271c0-0.547-0.112-0.974-0.337-1.279c-0.223-0.304-0.562-0.458-1.016-0.458
		c-0.229,0-0.429,0.04-0.599,0.119s-0.314,0.191-0.427,0.339c-0.114,0.149-0.198,0.331-0.254,0.547
		c-0.056,0.217-0.083,0.46-0.083,0.732c0,0.543,0.112,0.968,0.337,1.271C85.013,64.229,85.356,64.381,85.813,64.381z"/>
	<path fill="#FFFFFF" d="M89.78,60.354v2.93c0,0.347,0.079,0.616,0.239,0.805c0.158,0.191,0.399,0.287,0.726,0.287
		c0.235,0,0.458-0.056,0.666-0.168c0.21-0.112,0.401-0.269,0.576-0.466v-3.388h0.808v4.593h-0.481c-0.114,0-0.187-0.056-0.218-0.169
		l-0.062-0.493c-0.2,0.221-0.424,0.397-0.672,0.533c-0.248,0.135-0.531,0.202-0.851,0.202c-0.252,0-0.473-0.042-0.664-0.125
		c-0.193-0.083-0.354-0.2-0.483-0.352c-0.131-0.15-0.229-0.333-0.293-0.547c-0.064-0.216-0.098-0.454-0.098-0.711v-2.93H89.78z"/>
	<path fill="#FFFFFF" d="M99.312,64.947c-0.079,0-0.139-0.013-0.181-0.04c-0.042-0.025-0.075-0.075-0.1-0.15l-0.092-0.431
		c-0.121,0.108-0.239,0.206-0.355,0.291c-0.115,0.085-0.237,0.158-0.362,0.219c-0.125,0.058-0.26,0.104-0.404,0.135
		s-0.302,0.048-0.479,0.048s-0.345-0.025-0.501-0.075c-0.158-0.05-0.295-0.125-0.41-0.225c-0.117-0.1-0.21-0.225-0.277-0.378
		c-0.069-0.152-0.102-0.333-0.102-0.541c0-0.181,0.05-0.356,0.148-0.524c0.1-0.167,0.262-0.316,0.487-0.445
		c0.223-0.131,0.514-0.237,0.874-0.321c0.36-0.083,0.801-0.131,1.323-0.144v-0.358c0-0.355-0.077-0.626-0.231-0.809
		c-0.154-0.181-0.379-0.273-0.676-0.273c-0.198,0-0.366,0.025-0.5,0.075c-0.135,0.05-0.252,0.104-0.35,0.167
		c-0.098,0.062-0.183,0.119-0.254,0.168s-0.142,0.075-0.21,0.075c-0.054,0-0.102-0.015-0.142-0.043
		c-0.04-0.029-0.073-0.064-0.1-0.106l-0.144-0.258c0.254-0.246,0.527-0.429,0.82-0.549c0.293-0.121,0.618-0.181,0.974-0.181
		c0.258,0,0.485,0.042,0.685,0.127s0.368,0.202,0.503,0.354s0.239,0.333,0.308,0.549c0.069,0.214,0.104,0.449,0.104,0.705v2.938
		H99.312z M97.581,64.454c0.142,0,0.273-0.015,0.389-0.044c0.119-0.029,0.229-0.071,0.333-0.123c0.104-0.052,0.204-0.119,0.3-0.196
		s0.189-0.162,0.279-0.26v-0.951c-0.371,0.01-0.689,0.042-0.949,0.087c-0.262,0.048-0.475,0.108-0.639,0.183
		c-0.167,0.077-0.285,0.167-0.36,0.269c-0.073,0.102-0.11,0.216-0.11,0.343c0,0.123,0.021,0.227,0.059,0.314
		c0.04,0.087,0.093,0.158,0.162,0.214c0.066,0.056,0.148,0.098,0.239,0.123C97.377,64.439,97.475,64.454,97.581,64.454z"/>
	<path fill="#FFFFFF" d="M102.25,65.02c-0.364,0-0.643-0.102-0.836-0.304c-0.196-0.202-0.294-0.496-0.294-0.876v-2.809h-0.553
		c-0.048,0-0.087-0.014-0.121-0.043c-0.034-0.029-0.05-0.073-0.05-0.133v-0.322l0.751-0.096l0.188-1.417
		c0.008-0.045,0.028-0.083,0.06-0.112c0.031-0.029,0.073-0.043,0.125-0.043h0.408v1.583h1.327v0.584h-1.327v2.755
		c0,0.193,0.046,0.337,0.142,0.431c0.094,0.094,0.214,0.142,0.362,0.142c0.083,0,0.158-0.013,0.218-0.036
		c0.062-0.021,0.117-0.046,0.163-0.073c0.045-0.029,0.083-0.054,0.114-0.075c0.033-0.023,0.06-0.036,0.085-0.036
		c0.042,0,0.079,0.027,0.112,0.077l0.235,0.385c-0.138,0.131-0.306,0.233-0.502,0.306C102.66,64.982,102.458,65.02,102.25,65.02z"/>
	<path fill="#FFFFFF" d="M106.602,64.947v-6.497h2.07c0.399,0,0.742,0.04,1.032,0.119c0.287,0.079,0.526,0.189,0.711,0.335
		c0.186,0.146,0.323,0.323,0.41,0.533c0.088,0.21,0.131,0.447,0.131,0.709c0,0.16-0.024,0.314-0.074,0.462
		c-0.05,0.148-0.125,0.285-0.225,0.412c-0.101,0.127-0.226,0.241-0.379,0.341c-0.152,0.1-0.331,0.181-0.537,0.244
		c0.475,0.096,0.832,0.266,1.076,0.514c0.241,0.248,0.361,0.574,0.361,0.978c0,0.275-0.05,0.526-0.151,0.753
		c-0.103,0.227-0.25,0.42-0.445,0.584c-0.193,0.163-0.433,0.29-0.718,0.379c-0.283,0.089-0.607,0.133-0.97,0.133H106.602z
		 M107.476,61.362h1.161c0.247,0,0.462-0.027,0.645-0.081c0.184-0.056,0.335-0.131,0.454-0.227c0.118-0.098,0.208-0.214,0.266-0.352
		c0.057-0.137,0.086-0.287,0.086-0.452c0-0.383-0.114-0.664-0.346-0.84c-0.229-0.177-0.585-0.265-1.069-0.265h-1.196V61.362z
		 M107.476,61.986v2.264h1.404c0.252,0,0.468-0.029,0.649-0.087c0.181-0.056,0.33-0.137,0.447-0.241
		c0.114-0.106,0.199-0.229,0.256-0.373c0.054-0.144,0.081-0.302,0.081-0.475c0-0.335-0.121-0.599-0.358-0.795
		c-0.239-0.195-0.597-0.293-1.075-0.293H107.476z"/>
	<path fill="#FFFFFF" d="M115.118,64.947c-0.079,0-0.14-0.013-0.181-0.04c-0.042-0.025-0.075-0.075-0.101-0.15l-0.091-0.431
		c-0.121,0.108-0.239,0.206-0.356,0.291c-0.114,0.085-0.237,0.158-0.362,0.219c-0.124,0.058-0.26,0.104-0.403,0.135
		s-0.302,0.048-0.479,0.048s-0.346-0.025-0.502-0.075c-0.157-0.05-0.295-0.125-0.409-0.225c-0.117-0.1-0.211-0.225-0.277-0.378
		c-0.068-0.152-0.102-0.333-0.102-0.541c0-0.181,0.05-0.356,0.147-0.524c0.1-0.167,0.263-0.316,0.487-0.445
		c0.223-0.131,0.514-0.237,0.874-0.321c0.359-0.083,0.801-0.131,1.323-0.144v-0.358c0-0.355-0.077-0.626-0.231-0.809
		c-0.153-0.181-0.378-0.273-0.676-0.273c-0.198,0-0.366,0.025-0.499,0.075c-0.136,0.05-0.252,0.104-0.35,0.167
		c-0.099,0.062-0.184,0.119-0.254,0.168c-0.071,0.05-0.142,0.075-0.211,0.075c-0.054,0-0.102-0.015-0.142-0.043
		c-0.039-0.029-0.072-0.064-0.1-0.106l-0.144-0.258c0.254-0.246,0.526-0.429,0.82-0.549c0.293-0.121,0.618-0.181,0.974-0.181
		c0.258,0,0.484,0.042,0.685,0.127c0.199,0.085,0.368,0.202,0.504,0.354c0.135,0.152,0.239,0.333,0.308,0.549
		c0.068,0.214,0.104,0.449,0.104,0.705v2.938H115.118z M113.387,64.454c0.142,0,0.272-0.015,0.39-0.044
		c0.118-0.029,0.229-0.071,0.333-0.123c0.104-0.052,0.203-0.119,0.299-0.196s0.189-0.162,0.279-0.26v-0.951
		c-0.37,0.01-0.688,0.042-0.949,0.087c-0.262,0.048-0.475,0.108-0.639,0.183c-0.166,0.077-0.285,0.167-0.359,0.269
		c-0.073,0.102-0.11,0.216-0.11,0.343c0,0.123,0.021,0.227,0.058,0.314c0.04,0.087,0.094,0.158,0.162,0.214
		c0.067,0.056,0.148,0.098,0.239,0.123C113.183,64.439,113.281,64.454,113.387,64.454z"/>
	<path fill="#FFFFFF" d="M116.704,64.947v-4.593h0.462c0.087,0,0.149,0.017,0.183,0.05c0.031,0.033,0.055,0.091,0.066,0.172
		l0.05,0.697c0.146-0.314,0.325-0.56,0.537-0.737c0.215-0.177,0.473-0.264,0.778-0.264c0.096,0,0.189,0.011,0.279,0.031
		c0.089,0.021,0.168,0.054,0.237,0.1l-0.059,0.603c-0.019,0.075-0.064,0.113-0.136,0.113c-0.043,0-0.105-0.008-0.187-0.027
		c-0.081-0.017-0.173-0.027-0.277-0.027c-0.144,0-0.274,0.023-0.389,0.066c-0.114,0.044-0.217,0.106-0.306,0.189
		c-0.09,0.083-0.169,0.185-0.237,0.306c-0.071,0.121-0.134,0.26-0.191,0.418v2.901H116.704z"/>
	<path fill="#FFFFFF" d="M123.822,61.611l-2.146-3.161h0.876c0.062,0,0.11,0.01,0.14,0.033c0.031,0.021,0.059,0.05,0.081,0.089
		l1.696,2.604c0.021-0.064,0.052-0.133,0.096-0.21l1.6-2.374c0.023-0.044,0.053-0.077,0.086-0.102
		c0.033-0.027,0.072-0.04,0.118-0.04h0.839l-2.154,3.119l2.227,3.377h-0.871c-0.067,0-0.119-0.017-0.156-0.052
		c-0.038-0.035-0.069-0.073-0.092-0.117l-1.741-2.724c-0.021,0.064-0.048,0.125-0.082,0.181l-1.695,2.542
		c-0.029,0.044-0.062,0.082-0.098,0.117c-0.033,0.036-0.081,0.052-0.142,0.052h-0.815L123.822,61.611z"/>
	<path fill="#FFFFFF" d="M131.75,65.02c-0.364,0-0.643-0.102-0.836-0.304c-0.196-0.202-0.294-0.496-0.294-0.876v-2.809h-0.553
		c-0.048,0-0.088-0.014-0.121-0.043s-0.05-0.073-0.05-0.133v-0.322l0.751-0.096l0.188-1.417c0.008-0.045,0.029-0.083,0.061-0.112
		c0.031-0.029,0.072-0.043,0.124-0.043h0.408v1.583h1.328v0.584h-1.328v2.755c0,0.193,0.046,0.337,0.142,0.431
		c0.094,0.094,0.214,0.142,0.362,0.142c0.083,0,0.158-0.013,0.218-0.036c0.062-0.021,0.117-0.046,0.163-0.073
		c0.046-0.029,0.083-0.054,0.114-0.075c0.033-0.023,0.061-0.036,0.085-0.036c0.042,0,0.079,0.027,0.112,0.077l0.235,0.385
		c-0.138,0.131-0.306,0.233-0.501,0.306C132.16,64.982,131.958,65.02,131.75,65.02z"/>
	<path fill="#FFFFFF" d="M135.525,60.282c0.337,0,0.639,0.056,0.907,0.168c0.268,0.112,0.499,0.271,0.688,0.477
		c0.191,0.204,0.337,0.454,0.437,0.745c0.103,0.292,0.152,0.618,0.152,0.978c0,0.362-0.05,0.688-0.152,0.978
		c-0.1,0.289-0.245,0.539-0.437,0.743c-0.189,0.206-0.421,0.364-0.688,0.475c-0.269,0.11-0.57,0.165-0.907,0.165
		c-0.338,0-0.644-0.054-0.914-0.165s-0.499-0.269-0.69-0.475c-0.189-0.204-0.335-0.454-0.438-0.743
		c-0.102-0.29-0.151-0.616-0.151-0.978c0-0.36,0.05-0.687,0.151-0.978c0.103-0.292,0.248-0.541,0.438-0.745
		c0.191-0.206,0.42-0.364,0.69-0.477S135.188,60.282,135.525,60.282z M135.525,64.381c0.453,0,0.792-0.152,1.015-0.456
		c0.226-0.304,0.338-0.728,0.338-1.271c0-0.547-0.112-0.974-0.338-1.279c-0.223-0.304-0.562-0.458-1.015-0.458
		c-0.229,0-0.429,0.04-0.6,0.119s-0.314,0.191-0.427,0.339c-0.114,0.149-0.197,0.331-0.254,0.547
		c-0.056,0.217-0.083,0.46-0.083,0.732c0,0.543,0.112,0.968,0.337,1.271S135.067,64.381,135.525,64.381z"/>
	<path fill="#FFFFFF" d="M138.729,64.947v-4.593h0.484c0.115,0,0.188,0.056,0.215,0.169l0.062,0.497
		c0.199-0.221,0.422-0.397,0.672-0.535c0.248-0.135,0.533-0.204,0.855-0.204c0.252,0,0.473,0.042,0.664,0.125
		c0.193,0.083,0.354,0.202,0.48,0.354c0.129,0.154,0.227,0.337,0.293,0.552s0.101,0.451,0.101,0.711v2.924h-0.812v-2.924
		c0-0.348-0.078-0.618-0.239-0.81c-0.157-0.191-0.399-0.287-0.722-0.287c-0.241,0-0.466,0.056-0.672,0.171
		c-0.208,0.116-0.397,0.271-0.57,0.468v3.381H138.729z"/>
	<path fill="#FFFFFF" d="M144.812,58.913c0,0.079-0.015,0.152-0.046,0.221c-0.033,0.068-0.074,0.129-0.127,0.181
		c-0.054,0.054-0.116,0.096-0.187,0.125c-0.071,0.031-0.146,0.046-0.225,0.046c-0.077,0-0.152-0.015-0.219-0.046
		c-0.069-0.029-0.129-0.071-0.179-0.125c-0.053-0.052-0.094-0.113-0.123-0.181c-0.031-0.069-0.046-0.142-0.046-0.221
		c0-0.077,0.015-0.152,0.046-0.223c0.029-0.071,0.07-0.133,0.123-0.187c0.05-0.052,0.109-0.094,0.179-0.125
		c0.066-0.029,0.142-0.044,0.219-0.044c0.079,0,0.153,0.015,0.225,0.044c0.07,0.031,0.133,0.073,0.187,0.125
		c0.053,0.054,0.094,0.116,0.127,0.187C144.797,58.761,144.812,58.835,144.812,58.913z M144.642,60.354v4.593h-0.808v-4.593H144.642
		z"/>
	<path fill="#FFFFFF" d="M147.564,60.278c0.2,0,0.385,0.023,0.558,0.066c0.173,0.044,0.329,0.108,0.473,0.191h1.246v0.3
		c0,0.1-0.064,0.164-0.191,0.191l-0.52,0.071c0.102,0.198,0.153,0.416,0.153,0.657c0,0.225-0.043,0.429-0.129,0.61
		c-0.087,0.183-0.206,0.339-0.355,0.47c-0.152,0.129-0.333,0.229-0.545,0.3c-0.211,0.068-0.441,0.104-0.689,0.104
		c-0.216,0-0.42-0.027-0.611-0.077c-0.096,0.061-0.171,0.125-0.221,0.194c-0.05,0.07-0.075,0.137-0.075,0.204
		c0,0.11,0.046,0.191,0.136,0.248c0.089,0.056,0.206,0.096,0.352,0.121c0.144,0.022,0.31,0.039,0.495,0.045s0.377,0.015,0.572,0.029
		c0.193,0.012,0.385,0.038,0.57,0.071c0.185,0.033,0.352,0.087,0.497,0.162c0.144,0.075,0.263,0.179,0.35,0.312
		c0.09,0.133,0.136,0.306,0.136,0.519c0,0.195-0.051,0.387-0.148,0.57c-0.098,0.186-0.239,0.348-0.424,0.491
		c-0.184,0.144-0.41,0.26-0.677,0.345c-0.269,0.085-0.57,0.129-0.905,0.129s-0.628-0.034-0.88-0.1
		c-0.25-0.066-0.458-0.156-0.624-0.266c-0.167-0.113-0.292-0.242-0.375-0.389c-0.083-0.146-0.125-0.3-0.125-0.46
		c0-0.227,0.071-0.418,0.213-0.574c0.144-0.158,0.337-0.283,0.58-0.377c-0.135-0.06-0.243-0.141-0.32-0.243
		c-0.079-0.1-0.119-0.237-0.119-0.41c0-0.066,0.013-0.135,0.036-0.206c0.024-0.071,0.062-0.141,0.112-0.21
		c0.05-0.071,0.11-0.137,0.183-0.2c0.073-0.064,0.158-0.119,0.254-0.168c-0.227-0.127-0.403-0.296-0.53-0.508
		c-0.127-0.21-0.189-0.456-0.189-0.735c0-0.223,0.042-0.426,0.129-0.609c0.085-0.181,0.206-0.337,0.36-0.466
		c0.153-0.129,0.337-0.227,0.551-0.297C147.078,60.313,147.311,60.278,147.564,60.278z M149.02,65.197
		c0-0.112-0.031-0.204-0.094-0.272c-0.064-0.069-0.15-0.123-0.256-0.163c-0.108-0.04-0.233-0.068-0.375-0.085
		s-0.293-0.029-0.451-0.038s-0.318-0.019-0.482-0.027c-0.163-0.011-0.321-0.025-0.471-0.046c-0.171,0.079-0.308,0.177-0.416,0.295
		c-0.106,0.117-0.16,0.258-0.16,0.42c0,0.104,0.026,0.2,0.079,0.289c0.052,0.087,0.133,0.165,0.243,0.231
		c0.108,0.064,0.245,0.117,0.41,0.154c0.164,0.038,0.357,0.057,0.582,0.057c0.217,0,0.412-0.021,0.585-0.059
		c0.171-0.04,0.318-0.096,0.438-0.168c0.118-0.073,0.21-0.158,0.274-0.258C148.988,65.428,149.02,65.317,149.02,65.197z
		 M147.564,62.704c0.165,0,0.309-0.023,0.431-0.069c0.125-0.046,0.229-0.108,0.312-0.191c0.085-0.081,0.149-0.179,0.191-0.292
		s0.062-0.237,0.062-0.375c0-0.281-0.085-0.503-0.256-0.67s-0.416-0.25-0.741-0.25c-0.326,0-0.574,0.083-0.744,0.25
		c-0.171,0.167-0.257,0.389-0.257,0.67c0,0.138,0.021,0.262,0.064,0.375c0.044,0.112,0.108,0.21,0.194,0.292
		c0.085,0.083,0.189,0.146,0.312,0.191C147.259,62.681,147.402,62.704,147.564,62.704z"/>
	<path fill="#FFFFFF" d="M150.68,64.947V58.27h0.812v2.701c0.195-0.208,0.414-0.375,0.653-0.5s0.514-0.189,0.824-0.189
		c0.252,0,0.473,0.042,0.664,0.125c0.193,0.083,0.354,0.202,0.48,0.354c0.129,0.154,0.227,0.337,0.293,0.552
		s0.101,0.451,0.101,0.711v2.924h-0.812v-2.924c0-0.348-0.079-0.618-0.239-0.81c-0.158-0.191-0.4-0.287-0.723-0.287
		c-0.241,0-0.466,0.056-0.672,0.171c-0.208,0.116-0.397,0.271-0.57,0.468v3.381H150.68z"/>
	<path fill="#FFFFFF" d="M157.085,65.02c-0.364,0-0.644-0.102-0.837-0.304c-0.195-0.202-0.293-0.496-0.293-0.876v-2.809h-0.554
		c-0.048,0-0.088-0.014-0.121-0.043s-0.05-0.073-0.05-0.133v-0.322l0.751-0.096l0.188-1.417c0.009-0.045,0.029-0.083,0.061-0.112
		c0.031-0.029,0.072-0.043,0.125-0.043h0.407v1.583h1.328v0.584h-1.328v2.755c0,0.193,0.046,0.337,0.142,0.431
		c0.094,0.094,0.215,0.142,0.362,0.142c0.083,0,0.158-0.013,0.219-0.036c0.062-0.021,0.116-0.046,0.162-0.073
		c0.046-0.029,0.083-0.054,0.114-0.075c0.033-0.023,0.061-0.036,0.085-0.036c0.042,0,0.08,0.027,0.113,0.077l0.234,0.385
		c-0.137,0.131-0.306,0.233-0.501,0.306C157.494,64.982,157.293,65.02,157.085,65.02z"/>
</g>
</svg>
