<?xml version="1.0" encoding="utf-8"?>
<!-- Generator: Adobe Illustrator 16.0.4, SVG Export Plug-In . SVG Version: 6.00 Build 0)  -->
<!DOCTYPE svg PUBLIC "-//W3C//DTD SVG 1.1//EN" "http://www.w3.org/Graphics/SVG/1.1/DTD/svg11.dtd">
<svg version="1.1" id="Layer_1" xmlns="http://www.w3.org/2000/svg" xmlns:xlink="http://www.w3.org/1999/xlink" x="0px" y="0px"
	 width="200px" height="200px" viewBox="0 0 200 200" enable-background="new 0 0 200 200" xml:space="preserve">
<g>
	<g>
		<path fill="#E6613C" d="M200,100.002C200,155.227,155.229,200,100.001,200C44.774,200,0,155.227,0,100.002
			C0,44.774,44.774,0,100.001,0C155.229,0,200,44.774,200,100.002z"/>
	</g>
</g>
<g>
	<path fill="#FFFFFF" d="M69.93,52.272c0-8.73-7.078-15.808-15.808-15.808c-8.731,0-15.809,7.078-15.809,15.808
		c0,2.641,0.655,5.124,1.802,7.313h-0.012l14.019,28.498l14.017-28.498H68.13C69.275,57.396,69.93,54.913,69.93,52.272z"/>
	<path fill="#FFFFFF" d="M117.591,52.272c0-8.73-7.078-15.808-15.809-15.808c-8.731,0-15.809,7.078-15.809,15.808
		c0,2.641,0.656,5.124,1.802,7.313h-0.011l14.018,28.498l14.017-28.498h-0.008C116.937,57.396,117.591,54.913,117.591,52.272z"/>
	<path fill="#FFFFFF" d="M164.208,52.344c0-8.731-7.076-15.808-15.806-15.808c-8.733,0-15.812,7.077-15.812,15.808
		c0,2.639,0.657,5.125,1.803,7.313h-0.011l14.02,28.498l14.016-28.498h-0.008C163.556,57.469,164.208,54.983,164.208,52.344z"/>
	<g>
		<path fill="#E6613C" d="M45.647,51.734v-6.72h2.315c0.44,0,0.817,0.042,1.129,0.126c0.312,0.083,0.57,0.203,0.77,0.356
			c0.199,0.156,0.346,0.344,0.439,0.563c0.092,0.22,0.139,0.467,0.139,0.744c0,0.158-0.023,0.31-0.07,0.453
			c-0.045,0.145-0.118,0.28-0.215,0.405c-0.099,0.124-0.222,0.239-0.373,0.341s-0.33,0.188-0.537,0.26
			c0.923,0.207,1.384,0.706,1.384,1.496c0,0.286-0.054,0.548-0.162,0.789c-0.109,0.244-0.267,0.45-0.475,0.625
			c-0.208,0.177-0.463,0.313-0.768,0.412c-0.303,0.1-0.65,0.149-1.041,0.149H45.647z M46.897,47.924h0.995
			c0.428,0,0.751-0.079,0.969-0.232c0.219-0.155,0.328-0.401,0.328-0.74c0-0.351-0.099-0.6-0.296-0.747
			c-0.199-0.149-0.509-0.224-0.93-0.224h-1.065V47.924z M46.897,48.788v1.971h1.265c0.231,0,0.427-0.03,0.586-0.085
			c0.158-0.055,0.284-0.13,0.378-0.222c0.094-0.094,0.162-0.203,0.204-0.327c0.042-0.124,0.062-0.256,0.062-0.395
			c0-0.145-0.023-0.277-0.069-0.392c-0.047-0.116-0.12-0.216-0.219-0.297c-0.1-0.083-0.227-0.145-0.383-0.189
			c-0.157-0.042-0.345-0.064-0.565-0.064H46.897z"/>
		<path fill="#E6613C" d="M57.42,51.734h-0.968c-0.107,0-0.196-0.028-0.264-0.081c-0.069-0.056-0.12-0.122-0.154-0.203l-0.501-1.372
			h-2.784l-0.502,1.372c-0.025,0.072-0.073,0.137-0.144,0.196c-0.071,0.058-0.16,0.088-0.265,0.088h-0.976l2.645-6.72h1.273
			L57.42,51.734z M53.07,49.198h2.142l-0.818-2.236c-0.04-0.1-0.083-0.218-0.125-0.352c-0.043-0.134-0.087-0.282-0.13-0.439
			c-0.044,0.158-0.087,0.305-0.128,0.441c-0.042,0.137-0.083,0.256-0.124,0.359L53.07,49.198z"/>
		<path fill="#E6613C" d="M59.367,49.108v2.626h-1.25v-6.72h2.05c0.456,0,0.847,0.047,1.173,0.141
			c0.326,0.095,0.595,0.228,0.804,0.399c0.209,0.17,0.363,0.373,0.462,0.61s0.149,0.5,0.149,0.783c0,0.226-0.035,0.439-0.101,0.642
			c-0.065,0.201-0.162,0.384-0.288,0.548c-0.126,0.165-0.281,0.307-0.465,0.431c-0.185,0.126-0.394,0.224-0.63,0.298
			c0.158,0.09,0.294,0.218,0.409,0.386l1.682,2.481h-1.128c-0.214,0-0.37-0.083-0.465-0.252l-1.413-2.15
			c-0.054-0.081-0.111-0.139-0.175-0.173c-0.062-0.034-0.157-0.051-0.28-0.051H59.367z M59.367,48.212h0.781
			c0.236,0,0.442-0.03,0.617-0.09c0.175-0.058,0.319-0.139,0.432-0.244c0.113-0.104,0.197-0.226,0.252-0.369
			c0.057-0.144,0.084-0.299,0.084-0.47c0-0.341-0.113-0.604-0.337-0.785c-0.225-0.184-0.567-0.275-1.029-0.275h-0.8V48.212z"/>
		<path fill="#E6613C" d="M52.683,61.373l-3.539-5.387h2.058c0.143,0,0.247,0.019,0.311,0.058c0.064,0.038,0.124,0.1,0.181,0.188
			L54.21,60.3c0.026-0.062,0.053-0.124,0.084-0.188c0.031-0.064,0.066-0.13,0.108-0.197l2.318-3.646
			c0.055-0.095,0.117-0.168,0.183-0.215c0.067-0.045,0.151-0.069,0.254-0.069h1.973l-3.57,5.304l3.669,5.794h-2.057
			c-0.143,0-0.257-0.037-0.342-0.106c-0.084-0.073-0.152-0.154-0.204-0.246l-2.57-4.251c-0.037,0.11-0.084,0.219-0.146,0.322
			l-2.463,3.93c-0.062,0.085-0.132,0.167-0.211,0.241c-0.08,0.074-0.183,0.111-0.31,0.111H49L52.683,61.373z"/>
	</g>
	<g>
		<path fill="#E6613C" d="M93.308,51.734v-6.72h2.315c0.44,0,0.817,0.042,1.129,0.126c0.312,0.083,0.57,0.203,0.769,0.356
			c0.2,0.156,0.347,0.344,0.439,0.563c0.093,0.22,0.139,0.467,0.139,0.744c0,0.158-0.022,0.31-0.069,0.453
			c-0.046,0.145-0.119,0.28-0.216,0.405c-0.098,0.124-0.222,0.239-0.372,0.341c-0.15,0.103-0.33,0.188-0.537,0.26
			c0.923,0.207,1.384,0.706,1.384,1.496c0,0.286-0.055,0.548-0.162,0.789c-0.109,0.244-0.267,0.45-0.475,0.625
			c-0.207,0.177-0.463,0.313-0.767,0.412c-0.303,0.1-0.651,0.149-1.041,0.149H93.308z M94.558,47.924h0.995
			c0.428,0,0.751-0.079,0.969-0.232c0.219-0.155,0.327-0.401,0.327-0.74c0-0.351-0.099-0.6-0.296-0.747
			c-0.198-0.149-0.508-0.224-0.93-0.224h-1.065V47.924z M94.558,48.788v1.971h1.265c0.231,0,0.427-0.03,0.585-0.085
			c0.158-0.055,0.284-0.13,0.379-0.222c0.094-0.094,0.162-0.203,0.204-0.327c0.042-0.124,0.062-0.256,0.062-0.395
			c0-0.145-0.023-0.277-0.069-0.392c-0.047-0.116-0.12-0.216-0.219-0.297c-0.099-0.083-0.227-0.145-0.383-0.189
			c-0.157-0.042-0.346-0.064-0.565-0.064H94.558z"/>
		<path fill="#E6613C" d="M105.081,51.734h-0.969c-0.106,0-0.195-0.028-0.265-0.081c-0.068-0.056-0.119-0.122-0.153-0.203
			l-0.499-1.372h-2.785l-0.503,1.372c-0.024,0.072-0.072,0.137-0.144,0.196c-0.07,0.058-0.159,0.088-0.264,0.088h-0.977l2.645-6.72
			h1.271L105.081,51.734z M100.731,49.198h2.142l-0.817-2.236c-0.04-0.1-0.082-0.218-0.126-0.352
			c-0.045-0.134-0.087-0.282-0.13-0.439c-0.043,0.158-0.086,0.305-0.127,0.441c-0.043,0.137-0.084,0.256-0.125,0.359L100.731,49.198
			z"/>
		<path fill="#E6613C" d="M107.029,49.108v2.626h-1.251v-6.72h2.049c0.456,0,0.847,0.047,1.176,0.141
			c0.326,0.095,0.593,0.228,0.802,0.399c0.208,0.17,0.364,0.373,0.463,0.61c0.101,0.237,0.149,0.5,0.149,0.783
			c0,0.226-0.034,0.439-0.101,0.642c-0.066,0.201-0.162,0.384-0.288,0.548c-0.126,0.165-0.282,0.307-0.465,0.431
			c-0.184,0.126-0.396,0.224-0.63,0.298c0.158,0.09,0.295,0.218,0.41,0.386l1.681,2.481h-1.128c-0.214,0-0.369-0.083-0.466-0.252
			l-1.412-2.15c-0.053-0.081-0.11-0.139-0.174-0.173c-0.065-0.034-0.159-0.051-0.282-0.051H107.029z M107.029,48.212h0.78
			c0.234,0,0.439-0.03,0.615-0.09c0.174-0.058,0.319-0.139,0.433-0.244c0.113-0.104,0.198-0.226,0.254-0.369
			c0.055-0.144,0.083-0.299,0.083-0.47c0-0.341-0.113-0.604-0.337-0.785c-0.225-0.184-0.568-0.275-1.03-0.275h-0.798V48.212z"/>
		<path fill="#E6613C" d="M103.127,62.785v4.299h-2.058v-4.299l-4.045-6.799h1.82c0.179,0,0.321,0.042,0.426,0.13
			c0.104,0.087,0.193,0.198,0.265,0.331l2.026,3.706c0.118,0.226,0.222,0.435,0.312,0.629c0.091,0.197,0.169,0.388,0.241,0.577
			c0.066-0.195,0.144-0.389,0.23-0.583c0.088-0.194,0.187-0.401,0.299-0.623l2.018-3.706c0.058-0.113,0.142-0.217,0.255-0.316
			c0.111-0.096,0.256-0.145,0.431-0.145h1.826L103.127,62.785z"/>
	</g>
	<g>
		<path fill="#E6613C" d="M141.858,50.222c0.068,0,0.129,0.025,0.182,0.079l0.493,0.535c-0.273,0.337-0.609,0.596-1.008,0.777
			c-0.396,0.179-0.874,0.269-1.434,0.269c-0.499,0-0.947-0.085-1.346-0.256c-0.396-0.17-0.738-0.408-1.021-0.71
			c-0.281-0.305-0.496-0.668-0.648-1.088c-0.148-0.423-0.224-0.881-0.224-1.38c0-0.505,0.079-0.967,0.241-1.387
			c0.162-0.42,0.389-0.782,0.681-1.085c0.293-0.303,0.643-0.54,1.047-0.708c0.408-0.169,0.855-0.254,1.349-0.254
			c0.491,0,0.924,0.081,1.304,0.241c0.38,0.163,0.703,0.374,0.968,0.634l-0.417,0.58c-0.023,0.036-0.056,0.071-0.095,0.098
			c-0.038,0.028-0.094,0.041-0.159,0.041c-0.047,0-0.096-0.013-0.146-0.038c-0.049-0.028-0.104-0.06-0.162-0.099
			c-0.06-0.038-0.128-0.081-0.205-0.128c-0.076-0.047-0.167-0.089-0.269-0.128c-0.102-0.038-0.222-0.07-0.356-0.098
			c-0.135-0.026-0.29-0.039-0.467-0.039c-0.301,0-0.576,0.054-0.826,0.16c-0.25,0.107-0.462,0.262-0.642,0.465
			c-0.182,0.203-0.32,0.45-0.419,0.745c-0.1,0.292-0.148,0.625-0.148,1c0,0.377,0.053,0.714,0.159,1.009
			c0.107,0.295,0.252,0.542,0.436,0.743c0.182,0.203,0.396,0.356,0.645,0.463c0.249,0.107,0.516,0.16,0.8,0.16
			c0.171,0,0.324-0.009,0.463-0.028s0.265-0.047,0.382-0.088c0.116-0.04,0.227-0.091,0.328-0.155
			c0.105-0.064,0.207-0.143,0.31-0.234c0.033-0.028,0.064-0.052,0.099-0.069S141.822,50.222,141.858,50.222z"/>
		<path fill="#E6613C" d="M144.643,50.774h2.687v1.032h-3.937v-6.72h1.25V50.774z"/>
		<path fill="#E6613C" d="M150.74,50.798c0.241,0,0.457-0.041,0.646-0.12c0.192-0.081,0.352-0.194,0.482-0.339
			c0.13-0.147,0.23-0.322,0.299-0.532c0.07-0.207,0.104-0.439,0.104-0.697v-4.024h1.253v4.024c0,0.401-0.066,0.77-0.194,1.109
			c-0.128,0.339-0.314,0.631-0.553,0.879c-0.241,0.245-0.534,0.437-0.877,0.576c-0.344,0.139-0.732,0.207-1.16,0.207
			c-0.436,0-0.824-0.068-1.167-0.207c-0.344-0.139-0.637-0.331-0.877-0.576c-0.239-0.248-0.425-0.54-0.553-0.879
			c-0.128-0.34-0.192-0.708-0.192-1.109v-4.024h1.25v4.02c0,0.258,0.035,0.49,0.105,0.698c0.067,0.207,0.168,0.386,0.301,0.533
			c0.132,0.147,0.292,0.26,0.484,0.341C150.281,50.757,150.496,50.798,150.74,50.798z"/>
		<path fill="#E6613C" d="M154.937,51.807v-6.72h2.314c0.439,0,0.814,0.042,1.128,0.126s0.57,0.203,0.771,0.356
			c0.199,0.156,0.346,0.343,0.438,0.563c0.093,0.219,0.14,0.467,0.14,0.744c0,0.158-0.023,0.309-0.07,0.452
			c-0.046,0.145-0.117,0.279-0.216,0.405c-0.098,0.124-0.222,0.239-0.372,0.342c-0.15,0.102-0.329,0.188-0.536,0.26
			c0.924,0.208,1.385,0.706,1.385,1.496c0,0.286-0.053,0.548-0.162,0.79c-0.108,0.244-0.268,0.45-0.475,0.625
			c-0.208,0.177-0.464,0.313-0.767,0.412c-0.304,0.101-0.651,0.149-1.042,0.149H154.937z M156.186,47.997h0.995
			c0.426,0,0.751-0.079,0.968-0.233c0.22-0.156,0.33-0.401,0.33-0.74c0-0.35-0.102-0.6-0.299-0.747
			c-0.199-0.149-0.508-0.225-0.929-0.225h-1.065V47.997z M156.186,48.86v1.971h1.264c0.233,0,0.429-0.03,0.587-0.085
			c0.158-0.056,0.283-0.13,0.377-0.222c0.097-0.094,0.165-0.202,0.205-0.326c0.043-0.124,0.063-0.256,0.063-0.395
			c0-0.145-0.022-0.277-0.069-0.393c-0.047-0.116-0.119-0.215-0.218-0.297c-0.101-0.083-0.229-0.145-0.384-0.189
			c-0.158-0.043-0.346-0.064-0.565-0.064H156.186z"/>
		<path fill="#E6613C" d="M149.743,62.857v4.299h-2.057v-4.299l-4.044-6.799h1.819c0.18,0,0.319,0.042,0.425,0.13
			c0.106,0.087,0.193,0.198,0.267,0.331l2.024,3.706c0.117,0.226,0.223,0.436,0.312,0.629c0.089,0.196,0.171,0.388,0.241,0.576
			c0.065-0.194,0.143-0.389,0.23-0.583c0.087-0.194,0.188-0.401,0.301-0.623l2.018-3.706c0.056-0.113,0.141-0.218,0.252-0.316
			c0.113-0.096,0.257-0.145,0.431-0.145h1.827L149.743,62.857z"/>
	</g>
	<g id="a8TeVM.tif_2_">
		<g>
			<path fill="#FFFFFF" d="M92.708,112.732c0.332,0,0.662,0,0.991,0c0.191,0.023,0.386,0.047,0.578,0.072
				c1.554,0.224,2.935,0.836,4.114,1.873c1.462,1.277,2.345,2.884,2.639,4.807c0.034,0.222,0.06,0.446,0.093,0.669
				c0,0.33,0,0.66,0,0.988c-0.013,0.051-0.025,0.101-0.033,0.152c-0.098,1.236-0.458,2.393-1.112,3.447
				c-1.26,2.02-3.062,3.265-5.412,3.703c-0.286,0.049-0.577,0.083-0.867,0.124c-0.329,0-0.659,0-0.991,0
				c-0.043-0.011-0.086-0.028-0.133-0.03c-0.991-0.074-1.938-0.32-2.825-0.77c-2.379-1.213-3.836-3.128-4.34-5.757
				c-0.056-0.285-0.082-0.575-0.124-0.87c0-0.328,0-0.658,0-0.988c0.012-0.053,0.026-0.106,0.032-0.163
				c0.062-0.813,0.237-1.599,0.563-2.345c1.154-2.629,3.136-4.235,5.959-4.79C92.126,112.798,92.419,112.771,92.708,112.732z
				 M89.96,119.872c-0.261,0.048-0.373,0.147-0.41,0.419c-0.069,0.531,0.092,0.994,0.451,1.391c0.048,0.058,0.099,0.117,0.131,0.188
				c0.41,0.868,0.887,1.685,1.707,2.25c-0.193,0.45-0.434,0.86-0.793,1.19c-0.225,0.205-0.483,0.339-0.79,0.393
				c-0.368,0.066-0.734,0.153-1.1,0.236c-0.127,0.025-0.252,0.066-0.412,0.116c1.544,1.162,3.245,1.653,5.128,1.488
				c1.395-0.12,2.646-0.616,3.751-1.495c-0.407-0.115-0.81-0.216-1.216-0.297c-0.323-0.066-0.647-0.113-0.917-0.329
				c-0.428-0.347-0.706-0.796-0.914-1.274c0.222-0.208,0.445-0.392,0.64-0.6c0.455-0.486,0.766-1.071,1.051-1.666
				c0.036-0.073,0.083-0.142,0.139-0.197c0.328-0.35,0.476-0.771,0.47-1.238c-0.006-0.374-0.127-0.511-0.448-0.588
				c0.003-0.032,0.011-0.066,0.012-0.103c0.027-0.508,0.088-1.018,0.071-1.522c-0.035-1.039-0.566-1.786-1.485-2.251
				c-0.847-0.427-1.742-0.493-2.666-0.331c-0.486,0.088-0.935,0.271-1.347,0.551c-0.833,0.562-1.149,1.384-1.143,2.352
				C89.876,118.991,89.928,119.427,89.96,119.872z"/>
		</g>
	</g>
	<g id="a8TeVM.tif_3_">
		<g>
			<path fill="#FFFFFF" d="M109.866,141.539c0.331,0,0.661,0,0.989,0c0.192,0.023,0.387,0.047,0.578,0.072
				c1.556,0.225,2.937,0.837,4.114,1.874c1.463,1.277,2.347,2.884,2.642,4.806c0.033,0.223,0.06,0.446,0.091,0.67
				c0,0.329,0,0.66,0,0.988c-0.013,0.051-0.025,0.1-0.031,0.151c-0.1,1.237-0.459,2.394-1.114,3.447
				c-1.259,2.021-3.062,3.265-5.411,3.703c-0.285,0.05-0.578,0.083-0.868,0.125c-0.328,0-0.658,0-0.989,0
				c-0.044-0.011-0.088-0.029-0.135-0.031c-0.989-0.074-1.938-0.319-2.824-0.77c-2.378-1.212-3.836-3.127-4.339-5.756
				c-0.057-0.286-0.082-0.576-0.124-0.87c0-0.328,0-0.659,0-0.988c0.013-0.054,0.025-0.106,0.031-0.164
				c0.062-0.812,0.237-1.598,0.562-2.345c1.157-2.628,3.139-4.235,5.961-4.792C109.284,141.605,109.578,141.58,109.866,141.539z
				 M107.118,148.679c-0.26,0.048-0.373,0.148-0.409,0.419c-0.068,0.531,0.092,0.995,0.45,1.392c0.049,0.057,0.1,0.116,0.133,0.188
				c0.409,0.868,0.885,1.686,1.706,2.251c-0.194,0.449-0.436,0.859-0.794,1.19c-0.224,0.205-0.482,0.339-0.789,0.392
				c-0.366,0.067-0.734,0.154-1.101,0.237c-0.126,0.025-0.252,0.065-0.411,0.115c1.544,1.163,3.244,1.652,5.128,1.489
				c1.396-0.12,2.646-0.614,3.75-1.495c-0.405-0.116-0.809-0.216-1.216-0.297c-0.322-0.066-0.646-0.113-0.917-0.329
				c-0.427-0.348-0.707-0.798-0.914-1.275c0.223-0.207,0.446-0.391,0.641-0.6c0.454-0.486,0.766-1.07,1.053-1.666
				c0.033-0.073,0.083-0.142,0.138-0.196c0.326-0.35,0.477-0.771,0.47-1.239c-0.006-0.374-0.126-0.51-0.448-0.588
				c0.002-0.031,0.011-0.065,0.011-0.102c0.027-0.508,0.089-1.016,0.072-1.522c-0.036-1.04-0.567-1.787-1.484-2.251
				c-0.848-0.428-1.743-0.493-2.667-0.332c-0.486,0.089-0.935,0.271-1.346,0.551c-0.834,0.563-1.15,1.385-1.144,2.352
				C107.035,147.798,107.087,148.234,107.118,148.679z"/>
		</g>
	</g>
	<g id="a8TeVM.tif_6_">
		<g>
			<path fill="#FFFFFF" d="M109.866,102.558c0.331,0,0.661,0,0.989,0c0.192,0.023,0.387,0.048,0.578,0.075
				c1.556,0.222,2.937,0.836,4.114,1.871c1.463,1.279,2.347,2.885,2.642,4.807c0.033,0.224,0.06,0.445,0.091,0.669
				c0,0.331,0,0.659,0,0.991c-0.013,0.049-0.025,0.1-0.031,0.148c-0.1,1.24-0.459,2.396-1.114,3.447
				c-1.259,2.023-3.062,3.265-5.411,3.704c-0.285,0.051-0.578,0.083-0.868,0.123c-0.328,0-0.658,0-0.989,0
				c-0.044-0.008-0.088-0.025-0.135-0.029c-0.989-0.072-1.938-0.32-2.824-0.771c-2.378-1.212-3.836-3.127-4.339-5.755
				c-0.057-0.286-0.082-0.576-0.124-0.868c0-0.332,0-0.66,0-0.991c0.013-0.053,0.025-0.105,0.031-0.161
				c0.062-0.812,0.237-1.601,0.562-2.348c1.157-2.627,3.139-4.232,5.961-4.789C109.284,102.624,109.578,102.598,109.866,102.558z
				 M107.118,109.7c-0.26,0.047-0.373,0.147-0.409,0.417c-0.068,0.532,0.092,0.995,0.45,1.393c0.049,0.056,0.1,0.115,0.133,0.186
				c0.409,0.87,0.885,1.685,1.706,2.252c-0.194,0.449-0.436,0.858-0.794,1.189c-0.224,0.206-0.482,0.339-0.789,0.393
				c-0.366,0.067-0.734,0.152-1.101,0.236c-0.126,0.028-0.252,0.066-0.411,0.117c1.544,1.162,3.244,1.651,5.128,1.49
				c1.396-0.12,2.646-0.618,3.75-1.497c-0.405-0.116-0.809-0.218-1.216-0.296c-0.322-0.066-0.646-0.112-0.917-0.331
				c-0.427-0.345-0.707-0.796-0.914-1.275c0.223-0.206,0.446-0.389,0.641-0.6c0.454-0.486,0.766-1.069,1.053-1.666
				c0.033-0.072,0.083-0.139,0.138-0.196c0.326-0.351,0.477-0.768,0.47-1.239c-0.006-0.371-0.126-0.509-0.448-0.585
				c0.002-0.034,0.011-0.068,0.011-0.104c0.027-0.506,0.089-1.017,0.072-1.522c-0.036-1.038-0.567-1.785-1.484-2.253
				c-0.848-0.426-1.743-0.492-2.667-0.328c-0.486,0.086-0.935,0.27-1.346,0.549c-0.834,0.562-1.15,1.387-1.144,2.353
				C107.035,108.817,107.087,109.255,107.118,109.7z"/>
		</g>
	</g>
	<g id="Pb2SCL.tif_5_">
		<g>
			<path fill="#FFFFFF" d="M92.701,132.088c0.334,0,0.671,0,1.006,0c0.194,0.023,0.392,0.047,0.587,0.074
				c1.582,0.227,2.982,0.85,4.184,1.903c1.486,1.302,2.382,2.935,2.684,4.891c0.034,0.227,0.061,0.454,0.092,0.68
				c0,0.335,0,0.673,0,1.008c-0.011,0.049-0.025,0.1-0.031,0.153c-0.099,1.257-0.467,2.432-1.133,3.503
				c-1.279,2.057-3.113,3.32-5.5,3.765c-0.292,0.054-0.587,0.084-0.882,0.127c-0.335,0-0.671,0-1.006,0
				c-0.047-0.011-0.091-0.027-0.137-0.032c-1.01-0.073-1.972-0.322-2.874-0.78c-2.419-1.234-3.901-3.182-4.415-5.854
				c-0.056-0.29-0.083-0.587-0.124-0.881c0-0.335,0-0.673,0-1.008c0.01-0.055,0.026-0.11,0.031-0.168
				c0.064-0.823,0.243-1.625,0.574-2.383c1.175-2.672,3.189-4.305,6.058-4.87C92.108,132.156,92.406,132.131,92.701,132.088z
				 M94.588,135.645c-0.015-0.011-0.022-0.013-0.025-0.017c-0.024-0.034-0.05-0.066-0.076-0.102
				c-0.246-0.313-0.565-0.515-0.968-0.549c-0.894-0.078-1.752,0.058-2.573,0.428c-0.768,0.35-1.266,0.917-1.433,1.765
				c-0.237,1.208-0.218,2.406,0.115,3.591c0.08,0.281,0.086,0.537,0.02,0.814c-0.189,0.777-0.598,1.363-1.39,1.628
				c-0.018,0.005-0.033,0.02-0.074,0.047c0.29,0.108,0.554,0.22,0.829,0.308c0.513,0.164,1.036,0.243,1.579,0.141
				c0.4-0.077,0.742-0.265,1.042-0.539c0.097,0.059,0.186,0.114,0.273,0.165c-0.113,0.399-0.494,0.98-0.817,1.255
				c-0.204,0.175-0.436,0.282-0.702,0.333c-0.382,0.076-0.766,0.162-1.146,0.261c-0.252,0.063-0.495,0.152-0.753,0.234
				c1.136,1.067,3.137,1.967,5.393,1.745c1.519-0.148,2.86-0.722,4.016-1.745c-0.51-0.162-1.02-0.299-1.53-0.43
				c-0.306-0.078-0.633-0.082-0.903-0.281c-0.478-0.346-0.753-0.832-0.981-1.365c0.098-0.058,0.188-0.108,0.276-0.159
				c0.252,0.236,0.534,0.408,0.859,0.492c0.923,0.232,1.751-0.081,2.591-0.459c-0.042-0.025-0.062-0.04-0.084-0.046
				c-0.675-0.219-1.088-0.69-1.296-1.347c-0.088-0.284-0.18-0.567-0.115-0.877c0.248-1.231,0.403-2.471,0.23-3.731
				c-0.079-0.57-0.303-1.085-0.726-1.498c-0.237-0.232-0.519-0.366-0.86-0.355C95.071,135.359,94.828,135.486,94.588,135.645z"/>
		</g>
	</g>
	<g id="Pb2SCL.tif_4_">
		<g>
			<path fill="#FFFFFF" d="M92.701,151.579c0.334,0,0.671,0,1.006,0c0.194,0.023,0.392,0.047,0.587,0.074
				c1.582,0.225,2.982,0.85,4.184,1.903c1.486,1.302,2.382,2.933,2.684,4.89c0.034,0.226,0.061,0.454,0.092,0.681
				c0,0.335,0,0.672,0,1.004c-0.011,0.055-0.025,0.104-0.031,0.154c-0.099,1.258-0.467,2.435-1.133,3.505
				c-1.279,2.057-3.113,3.319-5.5,3.764c-0.292,0.056-0.587,0.087-0.882,0.128c-0.335,0-0.671,0-1.006,0
				c-0.047-0.013-0.091-0.028-0.137-0.03c-1.01-0.074-1.972-0.324-2.874-0.782c-2.419-1.233-3.901-3.182-4.415-5.854
				c-0.056-0.29-0.083-0.588-0.124-0.885c0-0.332,0-0.669,0-1.004c0.01-0.056,0.026-0.111,0.031-0.167
				c0.064-0.825,0.243-1.628,0.574-2.385c1.175-2.671,3.189-4.306,6.058-4.873C92.108,151.647,92.406,151.619,92.701,151.579z
				 M94.588,155.136c-0.015-0.009-0.022-0.013-0.025-0.015c-0.024-0.037-0.05-0.069-0.076-0.104
				c-0.246-0.315-0.565-0.514-0.968-0.55c-0.894-0.077-1.752,0.057-2.573,0.429c-0.768,0.35-1.266,0.917-1.433,1.767
				c-0.237,1.207-0.218,2.406,0.115,3.591c0.08,0.279,0.086,0.535,0.02,0.812c-0.189,0.776-0.598,1.363-1.39,1.626
				c-0.018,0.006-0.033,0.021-0.074,0.049c0.29,0.11,0.554,0.22,0.829,0.307c0.513,0.162,1.036,0.241,1.579,0.139
				c0.4-0.072,0.742-0.263,1.042-0.538c0.097,0.061,0.186,0.116,0.273,0.167c-0.113,0.4-0.494,0.979-0.817,1.255
				c-0.204,0.175-0.436,0.28-0.702,0.333c-0.382,0.074-0.766,0.161-1.146,0.26c-0.252,0.064-0.495,0.153-0.753,0.234
				c1.136,1.066,3.137,1.965,5.393,1.745c1.519-0.147,2.86-0.719,4.016-1.745c-0.51-0.162-1.02-0.299-1.53-0.427
				c-0.306-0.08-0.633-0.085-0.903-0.283c-0.478-0.348-0.753-0.83-0.981-1.365c0.098-0.058,0.188-0.108,0.276-0.161
				c0.252,0.235,0.534,0.41,0.859,0.493c0.923,0.23,1.751-0.081,2.591-0.456c-0.042-0.026-0.062-0.043-0.084-0.052
				c-0.675-0.213-1.088-0.685-1.296-1.343c-0.088-0.284-0.18-0.567-0.115-0.878c0.248-1.23,0.403-2.472,0.23-3.729
				c-0.079-0.573-0.303-1.088-0.726-1.499c-0.237-0.23-0.519-0.367-0.86-0.357C95.071,154.852,94.828,154.978,94.588,155.136z"/>
		</g>
	</g>
	<g id="Pb2SCL.tif_12_">
		<g>
			<path fill="#FFFFFF" d="M109.86,123.121c0.335,0,0.669,0,1.004,0c0.194,0.026,0.394,0.047,0.589,0.075
				c1.581,0.224,2.98,0.849,4.184,1.9c1.485,1.304,2.381,2.937,2.685,4.893c0.033,0.226,0.06,0.454,0.089,0.681
				c0,0.334,0,0.669,0,1.007c-0.009,0.051-0.023,0.1-0.029,0.151c-0.099,1.259-0.467,2.435-1.133,3.505
				c-1.28,2.057-3.113,3.32-5.5,3.764c-0.293,0.055-0.59,0.088-0.884,0.128c-0.335,0-0.669,0-1.004,0
				c-0.047-0.013-0.093-0.027-0.138-0.029c-1.01-0.078-1.973-0.325-2.873-0.783c-2.42-1.234-3.902-3.182-4.416-5.854
				c-0.054-0.29-0.081-0.586-0.121-0.881c0-0.338,0-0.673,0-1.007c0.008-0.056,0.025-0.111,0.029-0.166
				c0.063-0.826,0.243-1.628,0.574-2.386c1.173-2.672,3.188-4.305,6.057-4.872C109.268,123.189,109.563,123.162,109.86,123.121z
				 M111.746,126.678c-0.016-0.008-0.022-0.013-0.026-0.015c-0.023-0.036-0.049-0.067-0.074-0.103
				c-0.245-0.315-0.565-0.514-0.968-0.551c-0.896-0.076-1.753,0.059-2.574,0.43c-0.768,0.35-1.267,0.917-1.434,1.764
				c-0.235,1.208-0.217,2.409,0.116,3.593c0.08,0.279,0.087,0.535,0.021,0.812c-0.19,0.777-0.6,1.364-1.39,1.626
				c-0.019,0.007-0.033,0.021-0.076,0.049c0.29,0.111,0.555,0.221,0.83,0.308c0.513,0.162,1.036,0.241,1.578,0.139
				c0.401-0.073,0.742-0.262,1.043-0.537c0.096,0.06,0.187,0.114,0.273,0.165c-0.112,0.4-0.495,0.98-0.817,1.256
				c-0.205,0.174-0.436,0.281-0.702,0.332c-0.384,0.074-0.766,0.163-1.146,0.261c-0.251,0.063-0.494,0.152-0.753,0.234
				c1.136,1.067,3.137,1.965,5.394,1.745c1.519-0.147,2.858-0.72,4.015-1.745c-0.509-0.164-1.02-0.301-1.527-0.429
				c-0.307-0.079-0.636-0.083-0.904-0.282c-0.479-0.348-0.753-0.83-0.981-1.365c0.099-0.058,0.188-0.108,0.275-0.159
				c0.254,0.234,0.535,0.409,0.859,0.492c0.927,0.23,1.753-0.081,2.592-0.456c-0.043-0.025-0.063-0.043-0.085-0.051
				c-0.674-0.214-1.088-0.686-1.295-1.345c-0.09-0.283-0.182-0.567-0.115-0.877c0.247-1.231,0.403-2.473,0.23-3.729
				c-0.079-0.574-0.303-1.087-0.728-1.499c-0.237-0.231-0.518-0.367-0.86-0.356C112.229,126.395,111.986,126.518,111.746,126.678z"
				/>
		</g>
	</g>
	<g id="Pb2SCL.tif_13_">
		<g>
			<path fill="#FFFFFF" d="M109.86,162.009c0.335,0,0.669,0,1.004,0c0.194,0.023,0.394,0.045,0.589,0.074
				c1.581,0.225,2.98,0.85,4.184,1.901c1.485,1.304,2.381,2.936,2.685,4.891c0.033,0.229,0.06,0.455,0.089,0.682
				c0,0.335,0,0.671,0,1.006c-0.009,0.053-0.023,0.102-0.029,0.152c-0.099,1.258-0.467,2.435-1.133,3.506
				c-1.28,2.057-3.113,3.319-5.5,3.763c-0.293,0.056-0.59,0.089-0.884,0.127c-0.335,0-0.669,0-1.004,0
				c-0.047-0.011-0.093-0.025-0.138-0.03c-1.01-0.075-1.973-0.323-2.873-0.783c-2.42-1.231-3.902-3.18-4.416-5.852
				c-0.054-0.292-0.081-0.589-0.121-0.883c0-0.335,0-0.671,0-1.006c0.008-0.055,0.025-0.11,0.029-0.166
				c0.063-0.827,0.243-1.628,0.574-2.385c1.173-2.674,3.188-4.306,6.057-4.873C109.268,162.077,109.563,162.049,109.86,162.009z
				 M111.746,165.565c-0.016-0.011-0.022-0.013-0.026-0.017c-0.023-0.034-0.049-0.066-0.074-0.102
				c-0.245-0.315-0.565-0.515-0.968-0.55c-0.896-0.077-1.753,0.059-2.574,0.429c-0.768,0.35-1.267,0.917-1.434,1.765
				c-0.235,1.208-0.217,2.406,0.116,3.593c0.08,0.279,0.087,0.535,0.021,0.811c-0.19,0.779-0.6,1.365-1.39,1.628
				c-0.019,0.006-0.033,0.021-0.076,0.049c0.29,0.108,0.555,0.22,0.83,0.307c0.513,0.163,1.036,0.241,1.578,0.14
				c0.401-0.073,0.742-0.263,1.043-0.538c0.096,0.06,0.187,0.115,0.273,0.166c-0.112,0.399-0.495,0.979-0.817,1.255
				c-0.205,0.175-0.436,0.282-0.702,0.333c-0.384,0.074-0.766,0.162-1.146,0.26c-0.251,0.064-0.494,0.153-0.753,0.235
				c1.136,1.064,3.137,1.965,5.394,1.745c1.519-0.148,2.858-0.72,4.015-1.745c-0.509-0.165-1.02-0.301-1.527-0.43
				c-0.307-0.078-0.636-0.085-0.904-0.281c-0.479-0.348-0.753-0.83-0.981-1.365c0.099-0.058,0.188-0.108,0.275-0.162
				c0.254,0.237,0.535,0.409,0.859,0.495c0.927,0.229,1.753-0.081,2.592-0.457c-0.043-0.025-0.063-0.042-0.085-0.051
				c-0.674-0.216-1.088-0.688-1.295-1.346c-0.09-0.282-0.182-0.565-0.115-0.875c0.247-1.231,0.403-2.473,0.23-3.729
				c-0.079-0.574-0.303-1.088-0.728-1.5c-0.237-0.23-0.518-0.366-0.86-0.355C112.229,165.282,111.986,165.405,111.746,165.565z"/>
		</g>
	</g>
	<g id="Pb2SCL.tif_8_">
		<g>
			<path fill="#FFFFFF" d="M92.701,93.109c0.334,0,0.671,0,1.006,0c0.194,0.021,0.392,0.044,0.587,0.074
				c1.582,0.225,2.982,0.849,4.184,1.901c1.486,1.303,2.382,2.936,2.684,4.89c0.034,0.228,0.061,0.457,0.092,0.683
				c0,0.335,0,0.669,0,1.005c-0.011,0.051-0.025,0.103-0.031,0.153c-0.099,1.257-0.467,2.435-1.133,3.505
				c-1.279,2.057-3.113,3.319-5.5,3.764c-0.292,0.056-0.587,0.085-0.882,0.125c-0.335,0-0.671,0-1.006,0
				c-0.047-0.008-0.091-0.025-0.137-0.031c-1.01-0.072-1.972-0.322-2.874-0.781c-2.419-1.23-3.901-3.181-4.415-5.852
				c-0.056-0.292-0.083-0.588-0.124-0.883c0-0.336,0-0.67,0-1.005c0.01-0.058,0.026-0.113,0.031-0.169
				c0.064-0.826,0.243-1.627,0.574-2.383c1.175-2.673,3.189-4.305,6.058-4.873C92.108,93.177,92.406,93.15,92.701,93.109z
				 M94.588,96.664c-0.015-0.009-0.022-0.013-0.025-0.017c-0.024-0.032-0.05-0.066-0.076-0.099
				c-0.246-0.315-0.565-0.516-0.968-0.552c-0.894-0.077-1.752,0.06-2.573,0.431c-0.768,0.35-1.266,0.916-1.433,1.765
				c-0.237,1.208-0.218,2.406,0.115,3.59c0.08,0.281,0.086,0.537,0.02,0.812c-0.189,0.779-0.598,1.365-1.39,1.629
				c-0.018,0.006-0.033,0.019-0.074,0.049c0.29,0.108,0.554,0.219,0.829,0.305c0.513,0.164,1.036,0.243,1.579,0.141
				c0.4-0.074,0.742-0.262,1.042-0.537c0.097,0.059,0.186,0.113,0.273,0.164c-0.113,0.4-0.494,0.979-0.817,1.256
				c-0.204,0.174-0.436,0.28-0.702,0.333c-0.382,0.075-0.766,0.162-1.146,0.261c-0.252,0.062-0.495,0.153-0.753,0.232
				c1.136,1.066,3.137,1.967,5.393,1.745c1.519-0.146,2.86-0.72,4.016-1.745c-0.51-0.162-1.02-0.299-1.53-0.429
				c-0.306-0.077-0.633-0.083-0.903-0.282c-0.478-0.346-0.753-0.829-0.981-1.365c0.098-0.057,0.188-0.108,0.276-0.16
				c0.252,0.236,0.534,0.41,0.859,0.493c0.923,0.233,1.751-0.081,2.591-0.456c-0.042-0.025-0.062-0.043-0.084-0.049
				c-0.675-0.217-1.088-0.688-1.296-1.347c-0.088-0.282-0.18-0.565-0.115-0.874c0.248-1.232,0.403-2.474,0.23-3.732
				c-0.079-0.572-0.303-1.088-0.726-1.5c-0.237-0.23-0.519-0.365-0.86-0.354C95.071,96.38,94.828,96.505,94.588,96.664z"/>
		</g>
	</g>
	<g id="a8TeVM.tif_1_">
		<g>
			<path fill="#FFFFFF" d="M138.78,111.607c0.332,0,0.662,0,0.992,0c0.191,0.023,0.386,0.047,0.578,0.072
				c1.553,0.225,2.935,0.837,4.112,1.874c1.465,1.277,2.348,2.884,2.642,4.806c0.032,0.223,0.06,0.447,0.092,0.67
				c0,0.329,0,0.66,0,0.988c-0.013,0.051-0.025,0.1-0.032,0.152c-0.098,1.236-0.461,2.393-1.113,3.447
				c-1.261,2.02-3.062,3.264-5.41,3.703c-0.286,0.049-0.578,0.083-0.868,0.124c-0.33,0-0.66,0-0.992,0
				c-0.043-0.012-0.085-0.028-0.132-0.031c-0.99-0.074-1.939-0.319-2.825-0.769c-2.381-1.213-3.836-3.129-4.342-5.757
				c-0.053-0.286-0.08-0.576-0.121-0.87c0-0.328,0-0.659,0-0.988c0.011-0.053,0.025-0.106,0.032-0.164
				c0.06-0.812,0.234-1.598,0.561-2.344c1.154-2.629,3.137-4.235,5.961-4.79C138.199,111.674,138.492,111.648,138.78,111.607z
				 M136.034,118.748c-0.261,0.048-0.373,0.147-0.409,0.418c-0.07,0.531,0.092,0.994,0.449,1.392
				c0.048,0.058,0.102,0.116,0.133,0.188c0.409,0.868,0.886,1.686,1.707,2.251c-0.194,0.449-0.435,0.859-0.794,1.19
				c-0.225,0.205-0.481,0.339-0.79,0.392c-0.366,0.067-0.732,0.154-1.101,0.237c-0.125,0.025-0.251,0.065-0.411,0.116
				c1.545,1.162,3.245,1.652,5.128,1.488c1.394-0.12,2.648-0.614,3.752-1.495c-0.406-0.116-0.81-0.216-1.217-0.298
				c-0.322-0.065-0.646-0.112-0.917-0.328c-0.429-0.348-0.706-0.796-0.913-1.275c0.222-0.207,0.445-0.391,0.64-0.599
				c0.455-0.487,0.766-1.069,1.052-1.667c0.034-0.073,0.083-0.141,0.136-0.196c0.33-0.35,0.479-0.771,0.473-1.239
				c-0.009-0.374-0.128-0.51-0.449-0.587c0.004-0.032,0.01-0.066,0.012-0.103c0.028-0.508,0.088-1.016,0.072-1.522
				c-0.036-1.039-0.567-1.786-1.487-2.251c-0.845-0.427-1.74-0.493-2.664-0.331c-0.486,0.088-0.937,0.271-1.349,0.55
				c-0.832,0.563-1.147,1.385-1.142,2.352C135.949,117.867,136.002,118.303,136.034,118.748z"/>
		</g>
	</g>
	<g id="a8TeVM.tif_7_">
		<g>
			<path fill="#FFFFFF" d="M156.295,102.024c0.331,0,0.661,0,0.99,0c0.192,0.024,0.387,0.045,0.578,0.073
				c1.553,0.223,2.936,0.836,4.113,1.87c1.463,1.28,2.347,2.887,2.642,4.81c0.032,0.222,0.06,0.445,0.091,0.667
				c0,0.33,0,0.662,0,0.99c-0.013,0.051-0.025,0.1-0.031,0.148c-0.099,1.24-0.461,2.396-1.114,3.451
				c-1.261,2.02-3.062,3.263-5.41,3.703c-0.286,0.049-0.578,0.083-0.868,0.123c-0.329,0-0.659,0-0.99,0
				c-0.044-0.011-0.088-0.027-0.135-0.029c-0.989-0.075-1.939-0.32-2.824-0.771c-2.38-1.214-3.836-3.128-4.339-5.756
				c-0.057-0.288-0.084-0.575-0.124-0.87c0-0.328,0-0.66,0-0.99c0.011-0.053,0.025-0.104,0.031-0.161
				c0.061-0.813,0.235-1.599,0.563-2.346c1.152-2.628,3.137-4.234,5.96-4.791C155.713,102.091,156.005,102.062,156.295,102.024z
				 M153.548,109.165c-0.261,0.047-0.373,0.147-0.409,0.419c-0.071,0.531,0.091,0.993,0.449,1.391
				c0.049,0.058,0.1,0.117,0.133,0.187c0.409,0.868,0.885,1.686,1.707,2.251c-0.195,0.45-0.437,0.859-0.794,1.189
				c-0.225,0.206-0.482,0.341-0.79,0.394c-0.366,0.066-0.734,0.154-1.101,0.237c-0.126,0.025-0.252,0.066-0.411,0.115
				c1.544,1.162,3.244,1.653,5.128,1.489c1.396-0.12,2.647-0.617,3.75-1.496c-0.404-0.117-0.809-0.216-1.216-0.297
				c-0.321-0.065-0.646-0.112-0.917-0.328c-0.427-0.348-0.706-0.798-0.914-1.276c0.223-0.206,0.446-0.39,0.642-0.602
				c0.453-0.485,0.765-1.068,1.052-1.664c0.034-0.072,0.083-0.14,0.138-0.195c0.326-0.351,0.477-0.771,0.47-1.24
				c-0.006-0.373-0.128-0.51-0.448-0.586c0.002-0.034,0.009-0.066,0.011-0.103c0.027-0.508,0.087-1.018,0.072-1.522
				c-0.036-1.04-0.567-1.786-1.486-2.252c-0.845-0.426-1.741-0.492-2.664-0.33c-0.487,0.088-0.938,0.269-1.347,0.551
				c-0.834,0.562-1.149,1.384-1.144,2.351C153.463,108.282,153.516,108.72,153.548,109.165z"/>
		</g>
	</g>
	<g id="a8TeVM.tif_8_">
		<g>
			<path fill="#FFFFFF" d="M156.295,122.059c0.331,0,0.661,0,0.99,0c0.192,0.023,0.387,0.047,0.578,0.073
				c1.553,0.224,2.936,0.837,4.113,1.873c1.463,1.278,2.347,2.885,2.642,4.806c0.032,0.223,0.06,0.446,0.091,0.669
				c0,0.33,0,0.661,0,0.989c-0.013,0.052-0.025,0.101-0.031,0.149c-0.099,1.239-0.461,2.396-1.114,3.447
				c-1.261,2.022-3.062,3.267-5.41,3.706c-0.286,0.05-0.578,0.084-0.868,0.124c-0.329,0-0.659,0-0.99,0
				c-0.044-0.011-0.088-0.027-0.135-0.032c-0.989-0.072-1.939-0.317-2.824-0.768c-2.38-1.212-3.836-3.128-4.339-5.757
				c-0.057-0.286-0.084-0.576-0.124-0.87c0-0.328,0-0.659,0-0.989c0.011-0.051,0.025-0.107,0.031-0.163
				c0.061-0.812,0.235-1.599,0.563-2.344c1.152-2.629,3.137-4.234,5.96-4.789C155.713,122.126,156.005,122.097,156.295,122.059z
				 M153.548,129.2c-0.261,0.047-0.373,0.146-0.409,0.415c-0.071,0.533,0.091,0.997,0.449,1.394c0.049,0.059,0.1,0.117,0.133,0.188
				c0.409,0.868,0.885,1.686,1.707,2.251c-0.195,0.45-0.437,0.859-0.794,1.19c-0.225,0.205-0.482,0.34-0.79,0.393
				c-0.366,0.066-0.734,0.153-1.101,0.237c-0.126,0.025-0.252,0.065-0.411,0.114c1.544,1.163,3.244,1.654,5.128,1.489
				c1.396-0.119,2.647-0.616,3.75-1.495c-0.404-0.116-0.809-0.216-1.216-0.297c-0.321-0.065-0.646-0.113-0.917-0.328
				c-0.427-0.349-0.706-0.796-0.914-1.276c0.223-0.207,0.446-0.39,0.642-0.599c0.453-0.487,0.765-1.071,1.052-1.667
				c0.034-0.074,0.083-0.14,0.138-0.196c0.326-0.35,0.477-0.77,0.47-1.239c-0.006-0.373-0.128-0.51-0.448-0.586
				c0.002-0.032,0.009-0.066,0.011-0.104c0.027-0.507,0.087-1.017,0.072-1.522c-0.036-1.039-0.567-1.785-1.486-2.251
				c-0.845-0.427-1.741-0.495-2.664-0.33c-0.487,0.087-0.938,0.271-1.347,0.55c-0.834,0.563-1.149,1.385-1.144,2.351
				C153.463,128.319,153.516,128.754,153.548,129.2z"/>
		</g>
	</g>
	<g id="Pb2SCL.tif_6_">
		<g>
			<path fill="#FFFFFF" d="M138.773,130.964c0.335,0,0.673,0,1.008,0c0.193,0.023,0.39,0.047,0.586,0.074
				c1.581,0.227,2.982,0.85,4.186,1.903c1.485,1.302,2.381,2.934,2.682,4.891c0.037,0.225,0.062,0.453,0.093,0.68
				c0,0.335,0,0.673,0,1.008c-0.009,0.049-0.023,0.1-0.03,0.152c-0.101,1.258-0.468,2.433-1.133,3.504
				c-1.28,2.056-3.115,3.319-5.5,3.765c-0.295,0.054-0.589,0.084-0.883,0.127c-0.335,0-0.673,0-1.008,0
				c-0.045-0.011-0.089-0.028-0.136-0.032c-1.01-0.073-1.972-0.323-2.872-0.781c-2.421-1.233-3.902-3.182-4.416-5.852
				c-0.056-0.292-0.081-0.589-0.124-0.883c0-0.335,0-0.673,0-1.008c0.011-0.056,0.027-0.11,0.029-0.168
				c0.067-0.823,0.244-1.626,0.576-2.384c1.175-2.671,3.19-4.305,6.058-4.87C138.181,131.032,138.479,131.006,138.773,130.964z
				 M140.662,134.521c-0.016-0.011-0.021-0.013-0.025-0.017c-0.025-0.032-0.049-0.066-0.077-0.102
				c-0.243-0.313-0.562-0.516-0.967-0.55c-0.894-0.077-1.753,0.058-2.575,0.429c-0.766,0.35-1.266,0.917-1.431,1.764
				c-0.237,1.209-0.218,2.407,0.114,3.591c0.079,0.282,0.088,0.538,0.02,0.815c-0.189,0.779-0.598,1.363-1.389,1.628
				c-0.018,0.004-0.032,0.02-0.075,0.047c0.291,0.108,0.556,0.22,0.83,0.307c0.513,0.163,1.035,0.243,1.579,0.142
				c0.398-0.077,0.742-0.265,1.043-0.54c0.097,0.062,0.184,0.113,0.272,0.166c-0.112,0.399-0.494,0.979-0.819,1.255
				c-0.201,0.175-0.432,0.279-0.699,0.335c-0.383,0.074-0.766,0.16-1.146,0.258c-0.251,0.064-0.495,0.153-0.753,0.235
				c1.135,1.066,3.136,1.967,5.393,1.744c1.52-0.147,2.859-0.719,4.016-1.744c-0.51-0.163-1.02-0.299-1.53-0.43
				c-0.305-0.078-0.633-0.083-0.904-0.281c-0.476-0.346-0.753-0.832-0.979-1.365c0.098-0.06,0.188-0.108,0.275-0.16
				c0.253,0.237,0.534,0.409,0.859,0.493c0.924,0.229,1.752-0.082,2.592-0.459c-0.042-0.023-0.063-0.04-0.085-0.047
				c-0.675-0.218-1.088-0.689-1.295-1.346c-0.09-0.284-0.182-0.567-0.116-0.877c0.248-1.231,0.404-2.471,0.229-3.732
				c-0.076-0.569-0.303-1.085-0.725-1.497c-0.237-0.232-0.519-0.366-0.859-0.354C141.145,134.234,140.901,134.362,140.662,134.521z"
				/>
		</g>
	</g>
	<g id="Pb2SCL.tif_3_">
		<g>
			<path fill="#FFFFFF" d="M138.773,150.455c0.335,0,0.673,0,1.008,0c0.193,0.025,0.39,0.047,0.586,0.074
				c1.581,0.224,2.982,0.849,4.186,1.903c1.485,1.302,2.381,2.933,2.682,4.889c0.037,0.227,0.062,0.455,0.093,0.682
				c0,0.335,0,0.671,0,1.006c-0.009,0.053-0.023,0.102-0.03,0.152c-0.101,1.258-0.468,2.435-1.133,3.505
				c-1.28,2.057-3.115,3.319-5.5,3.764c-0.295,0.055-0.589,0.087-0.883,0.127c-0.335,0-0.673,0-1.008,0
				c-0.045-0.013-0.089-0.027-0.136-0.029c-1.01-0.076-1.972-0.324-2.872-0.782c-2.421-1.233-3.902-3.182-4.416-5.854
				c-0.056-0.29-0.081-0.587-0.124-0.882c0-0.335,0-0.671,0-1.006c0.011-0.056,0.027-0.111,0.029-0.167
				c0.067-0.826,0.244-1.628,0.576-2.385c1.175-2.671,3.19-4.306,6.058-4.873C138.181,150.522,138.479,150.495,138.773,150.455z
				 M140.662,154.012c-0.016-0.009-0.021-0.013-0.025-0.017c-0.025-0.036-0.049-0.067-0.077-0.102
				c-0.243-0.315-0.562-0.515-0.967-0.551c-0.894-0.076-1.753,0.058-2.575,0.43c-0.766,0.35-1.266,0.917-1.431,1.766
				c-0.237,1.208-0.218,2.407,0.114,3.591c0.079,0.279,0.088,0.536,0.02,0.813c-0.189,0.776-0.598,1.363-1.389,1.628
				c-0.018,0.004-0.032,0.019-0.075,0.047c0.291,0.11,0.556,0.22,0.83,0.307c0.513,0.161,1.035,0.241,1.579,0.139
				c0.398-0.072,0.742-0.263,1.043-0.538c0.097,0.061,0.184,0.116,0.272,0.167c-0.112,0.4-0.494,0.979-0.819,1.254
				c-0.201,0.175-0.432,0.281-0.699,0.333c-0.383,0.075-0.766,0.162-1.146,0.261c-0.251,0.066-0.495,0.153-0.753,0.233
				c1.135,1.067,3.136,1.965,5.393,1.746c1.52-0.147,2.859-0.719,4.016-1.746c-0.51-0.161-1.02-0.298-1.53-0.428
				c-0.305-0.079-0.633-0.083-0.904-0.281c-0.476-0.348-0.753-0.83-0.979-1.366c0.098-0.057,0.188-0.108,0.275-0.16
				c0.253,0.237,0.534,0.41,0.859,0.493c0.924,0.23,1.752-0.081,2.592-0.456c-0.042-0.026-0.063-0.044-0.085-0.052
				c-0.675-0.213-1.088-0.685-1.295-1.344c-0.09-0.283-0.182-0.567-0.116-0.878c0.248-1.23,0.404-2.471,0.229-3.729
				c-0.076-0.573-0.303-1.088-0.725-1.499c-0.237-0.23-0.519-0.368-0.859-0.357C141.145,153.728,140.901,153.851,140.662,154.012z"
				/>
		</g>
	</g>
	<g id="Pb2SCL.tif_14_">
		<g>
			<path fill="#FFFFFF" d="M156.287,142.331c0.335,0,0.672,0,1.006,0c0.194,0.025,0.392,0.047,0.589,0.076
				c1.579,0.225,2.98,0.85,4.184,1.901c1.485,1.304,2.382,2.935,2.683,4.889c0.036,0.227,0.062,0.455,0.091,0.682
				c0,0.335,0,0.672,0,1.006c-0.009,0.053-0.023,0.104-0.029,0.154c-0.101,1.256-0.467,2.433-1.133,3.503
				c-1.279,2.06-3.115,3.319-5.499,3.766c-0.296,0.056-0.59,0.087-0.885,0.126c-0.334,0-0.671,0-1.006,0
				c-0.045-0.011-0.091-0.026-0.138-0.03c-1.008-0.074-1.971-0.322-2.871-0.783c-2.422-1.23-3.901-3.179-4.416-5.851
				c-0.056-0.294-0.081-0.59-0.123-0.885c0-0.334,0-0.671,0-1.006c0.011-0.053,0.027-0.109,0.029-0.167
				c0.066-0.825,0.243-1.626,0.576-2.385c1.173-2.671,3.188-4.306,6.057-4.871C155.694,142.398,155.992,142.373,156.287,142.331z
				 M158.175,145.889c-0.016-0.011-0.021-0.013-0.026-0.017c-0.023-0.034-0.049-0.066-0.076-0.103
				c-0.243-0.313-0.563-0.515-0.966-0.548c-0.895-0.077-1.755,0.055-2.574,0.429c-0.767,0.35-1.267,0.917-1.434,1.765
				c-0.235,1.207-0.217,2.406,0.116,3.59c0.081,0.28,0.087,0.538,0.02,0.813c-0.19,0.777-0.598,1.365-1.39,1.628
				c-0.017,0.004-0.031,0.019-0.074,0.049c0.29,0.108,0.555,0.219,0.83,0.305c0.511,0.164,1.036,0.243,1.578,0.141
				c0.399-0.072,0.743-0.265,1.043-0.538c0.096,0.061,0.185,0.116,0.273,0.167c-0.112,0.398-0.495,0.979-0.817,1.254
				c-0.205,0.176-0.436,0.281-0.702,0.334c-0.384,0.074-0.765,0.161-1.146,0.26c-0.251,0.064-0.494,0.151-0.752,0.234
				c1.135,1.064,3.136,1.965,5.393,1.746c1.519-0.15,2.858-0.72,4.015-1.746c-0.509-0.164-1.02-0.301-1.529-0.429
				c-0.305-0.078-0.633-0.085-0.904-0.283c-0.476-0.346-0.751-0.828-0.979-1.363c0.099-0.058,0.188-0.111,0.275-0.163
				c0.254,0.237,0.535,0.41,0.859,0.493c0.924,0.232,1.751-0.079,2.592-0.456c-0.043-0.024-0.063-0.041-0.085-0.05
				c-0.674-0.215-1.088-0.687-1.294-1.346c-0.091-0.283-0.182-0.564-0.116-0.875c0.248-1.232,0.403-2.472,0.229-3.729
				c-0.076-0.574-0.303-1.089-0.726-1.5c-0.237-0.232-0.518-0.37-0.86-0.356C158.656,145.603,158.413,145.729,158.175,145.889z"/>
		</g>
	</g>
	<g id="Pb2SCL.tif_2_">
		<g>
			<path fill="#FFFFFF" d="M138.773,91.985c0.335,0,0.673,0,1.008,0c0.193,0.023,0.39,0.045,0.586,0.075
				c1.581,0.224,2.982,0.849,4.186,1.901c1.485,1.303,2.381,2.936,2.682,4.89c0.037,0.228,0.062,0.455,0.093,0.683
				c0,0.334,0,0.669,0,1.004c-0.009,0.051-0.023,0.102-0.03,0.154c-0.101,1.259-0.468,2.434-1.133,3.505
				c-1.28,2.057-3.115,3.319-5.5,3.764c-0.295,0.055-0.589,0.085-0.883,0.125c-0.335,0-0.673,0-1.008,0
				c-0.045-0.008-0.089-0.025-0.136-0.029c-1.01-0.075-1.972-0.324-2.872-0.782c-2.421-1.232-3.902-3.182-4.416-5.853
				c-0.056-0.292-0.081-0.589-0.124-0.883c0-0.335,0-0.67,0-1.004c0.011-0.058,0.027-0.113,0.029-0.169
				c0.067-0.826,0.244-1.627,0.576-2.383c1.175-2.673,3.19-4.305,6.058-4.873C138.181,92.053,138.479,92.025,138.773,91.985z
				 M140.662,95.539c-0.016-0.008-0.021-0.013-0.025-0.015c-0.025-0.034-0.049-0.069-0.077-0.101
				c-0.243-0.315-0.562-0.517-0.967-0.553c-0.894-0.076-1.753,0.06-2.575,0.431c-0.766,0.35-1.266,0.916-1.431,1.762
				c-0.237,1.207-0.218,2.409,0.114,3.593c0.079,0.282,0.088,0.537,0.02,0.812c-0.189,0.778-0.598,1.365-1.389,1.628
				c-0.018,0.004-0.032,0.021-0.075,0.049c0.291,0.109,0.556,0.221,0.83,0.306c0.513,0.164,1.035,0.243,1.579,0.141
				c0.398-0.075,0.742-0.263,1.043-0.538c0.097,0.061,0.184,0.113,0.272,0.164c-0.112,0.402-0.494,0.98-0.819,1.258
				c-0.201,0.172-0.432,0.279-0.699,0.332c-0.383,0.074-0.766,0.162-1.146,0.26c-0.251,0.062-0.495,0.154-0.753,0.233
				c1.135,1.068,3.136,1.967,5.393,1.745c1.52-0.147,2.859-0.719,4.016-1.745c-0.51-0.162-1.02-0.299-1.53-0.429
				c-0.305-0.077-0.633-0.084-0.904-0.281c-0.476-0.347-0.753-0.83-0.979-1.366c0.098-0.058,0.188-0.106,0.275-0.159
				c0.253,0.236,0.534,0.409,0.859,0.492c0.924,0.232,1.752-0.081,2.592-0.457c-0.042-0.025-0.063-0.042-0.085-0.049
				c-0.675-0.215-1.088-0.687-1.295-1.346c-0.09-0.281-0.182-0.566-0.116-0.875c0.248-1.231,0.404-2.473,0.229-3.731
				c-0.076-0.572-0.303-1.088-0.725-1.5c-0.237-0.23-0.519-0.367-0.859-0.354C141.145,95.255,140.901,95.381,140.662,95.539z"/>
		</g>
	</g>
	<g id="a8TeVM.tif_4_">
		<g>
			<path fill="#FFFFFF" d="M43.393,111.815c0.332,0,0.662,0,0.991,0c0.192,0.023,0.386,0.046,0.579,0.074
				c1.554,0.222,2.934,0.836,4.114,1.871c1.462,1.279,2.345,2.884,2.64,4.807c0.033,0.224,0.06,0.447,0.09,0.669
				c0,0.331,0,0.66,0,0.99c-0.012,0.049-0.024,0.101-0.031,0.149c-0.098,1.24-0.46,2.396-1.113,3.448
				c-1.261,2.021-3.063,3.263-5.411,3.705c-0.287,0.049-0.579,0.083-0.869,0.121c-0.329,0-0.659,0-0.991,0
				c-0.042-0.009-0.086-0.025-0.133-0.029c-0.991-0.072-1.938-0.32-2.825-0.769c-2.38-1.214-3.835-3.13-4.34-5.758
				c-0.054-0.285-0.081-0.575-0.123-0.868c0-0.33,0-0.659,0-0.99c0.01-0.053,0.025-0.106,0.031-0.161
				c0.062-0.813,0.237-1.601,0.563-2.348c1.154-2.626,3.136-4.232,5.959-4.789C42.812,111.883,43.105,111.855,43.393,111.815z
				 M40.646,118.957c-0.261,0.047-0.373,0.147-0.41,0.417c-0.069,0.533,0.091,0.995,0.45,1.393c0.048,0.056,0.101,0.115,0.131,0.185
				c0.41,0.871,0.886,1.686,1.708,2.253c-0.194,0.451-0.435,0.86-0.794,1.189c-0.224,0.206-0.482,0.341-0.789,0.392
				c-0.368,0.068-0.733,0.154-1.101,0.237c-0.126,0.027-0.252,0.068-0.411,0.117c1.543,1.162,3.244,1.651,5.127,1.489
				c1.395-0.12,2.646-0.617,3.75-1.496c-0.406-0.116-0.808-0.217-1.214-0.296c-0.324-0.066-0.649-0.113-0.918-0.331
				c-0.428-0.345-0.707-0.796-0.912-1.274c0.221-0.208,0.445-0.39,0.639-0.601c0.455-0.486,0.766-1.068,1.051-1.664
				c0.035-0.074,0.084-0.141,0.139-0.198c0.328-0.349,0.477-0.768,0.469-1.237c-0.006-0.373-0.125-0.511-0.448-0.587
				c0.003-0.034,0.011-0.065,0.012-0.104c0.026-0.506,0.089-1.016,0.072-1.521c-0.035-1.038-0.567-1.785-1.485-2.253
				c-0.847-0.426-1.744-0.492-2.666-0.328c-0.486,0.085-0.936,0.269-1.347,0.548c-0.833,0.563-1.149,1.388-1.143,2.354
				C40.562,118.074,40.613,118.512,40.646,118.957z"/>
		</g>
	</g>
	<g id="Pb2SCL.tif_10_">
		<g>
			<path fill="#FFFFFF" d="M43.387,131.173c0.335,0,0.671,0,1.006,0c0.195,0.023,0.392,0.047,0.588,0.075
				c1.581,0.224,2.981,0.849,4.184,1.9c1.486,1.304,2.382,2.936,2.684,4.89c0.035,0.229,0.062,0.457,0.092,0.683
				c0,0.335,0,0.67,0,1.005c-0.011,0.052-0.026,0.103-0.03,0.153c-0.101,1.26-0.468,2.435-1.135,3.506
				c-1.279,2.057-3.112,3.319-5.499,3.763c-0.293,0.056-0.588,0.085-0.883,0.128c-0.335,0-0.671,0-1.006,0
				c-0.047-0.011-0.089-0.027-0.137-0.032c-1.009-0.074-1.972-0.324-2.874-0.782c-2.419-1.231-3.9-3.181-4.415-5.852
				c-0.054-0.292-0.081-0.587-0.123-0.884c0-0.335,0-0.67,0-1.005c0.009-0.057,0.026-0.111,0.03-0.169
				c0.065-0.825,0.243-1.628,0.574-2.382c1.174-2.672,3.19-4.306,6.058-4.873C42.793,131.241,43.091,131.214,43.387,131.173z
				 M45.274,134.728c-0.015-0.009-0.021-0.013-0.024-0.015c-0.026-0.035-0.051-0.069-0.077-0.101
				c-0.246-0.316-0.565-0.517-0.967-0.553c-0.893-0.074-1.752,0.06-2.574,0.432c-0.769,0.35-1.266,0.914-1.433,1.764
				c-0.235,1.207-0.217,2.406,0.115,3.591c0.08,0.281,0.086,0.537,0.02,0.814c-0.189,0.777-0.598,1.363-1.389,1.626
				c-0.018,0.007-0.034,0.021-0.076,0.049c0.291,0.108,0.555,0.22,0.83,0.308c0.513,0.161,1.036,0.243,1.579,0.138
				c0.4-0.074,0.743-0.263,1.043-0.537c0.096,0.061,0.185,0.113,0.273,0.164c-0.113,0.4-0.495,0.979-0.818,1.257
				c-0.204,0.173-0.434,0.28-0.701,0.333c-0.383,0.074-0.767,0.161-1.146,0.261c-0.25,0.062-0.494,0.152-0.752,0.232
				c1.136,1.068,3.137,1.967,5.394,1.745c1.519-0.146,2.858-0.72,4.015-1.745c-0.509-0.163-1.02-0.3-1.528-0.427
				c-0.307-0.079-0.635-0.086-0.905-0.282c-0.477-0.348-0.752-0.832-0.981-1.367c0.098-0.058,0.188-0.106,0.276-0.16
				c0.254,0.236,0.535,0.409,0.859,0.494c0.925,0.231,1.753-0.082,2.592-0.457c-0.042-0.026-0.064-0.044-0.085-0.051
				c-0.674-0.214-1.088-0.687-1.296-1.345c-0.089-0.282-0.18-0.565-0.115-0.875c0.249-1.231,0.403-2.473,0.23-3.731
				c-0.078-0.572-0.303-1.089-0.727-1.5c-0.237-0.23-0.517-0.364-0.86-0.354C45.757,134.444,45.514,134.569,45.274,134.728z"/>
		</g>
	</g>
	<g id="Pb2SCL.tif_7_">
		<g>
			<path fill="#FFFFFF" d="M43.387,92.192c0.335,0,0.671,0,1.006,0c0.195,0.023,0.392,0.047,0.588,0.075
				c1.581,0.226,2.981,0.849,4.184,1.903c1.486,1.301,2.382,2.933,2.684,4.89c0.035,0.227,0.062,0.454,0.092,0.681
				c0,0.334,0,0.672,0,1.007c-0.011,0.049-0.026,0.103-0.03,0.153c-0.101,1.256-0.468,2.432-1.135,3.503
				c-1.279,2.057-3.112,3.319-5.499,3.766c-0.293,0.054-0.588,0.083-0.883,0.126c-0.335,0-0.671,0-1.006,0
				c-0.047-0.011-0.089-0.026-0.137-0.032c-1.009-0.072-1.972-0.322-2.874-0.781c-2.419-1.232-3.9-3.181-4.415-5.853
				c-0.054-0.291-0.081-0.588-0.123-0.882c0-0.335,0-0.672,0-1.007c0.009-0.055,0.026-0.111,0.03-0.168
				c0.065-0.824,0.243-1.626,0.574-2.383c1.174-2.671,3.19-4.306,6.058-4.871C42.793,92.26,43.091,92.234,43.387,92.192z
				 M45.274,95.748c-0.015-0.011-0.021-0.013-0.024-0.017c-0.026-0.032-0.051-0.066-0.077-0.1c-0.246-0.314-0.565-0.516-0.967-0.55
				c-0.893-0.077-1.752,0.058-2.574,0.429c-0.769,0.35-1.266,0.917-1.433,1.764c-0.235,1.208-0.217,2.407,0.115,3.59
				c0.08,0.282,0.086,0.539,0.02,0.816c-0.189,0.777-0.598,1.363-1.389,1.627c-0.018,0.004-0.034,0.02-0.076,0.047
				c0.291,0.109,0.555,0.222,0.83,0.307c0.513,0.165,1.036,0.244,1.579,0.142c0.4-0.077,0.743-0.265,1.043-0.538
				c0.096,0.061,0.185,0.113,0.273,0.164c-0.113,0.399-0.495,0.979-0.818,1.255c-0.204,0.175-0.434,0.282-0.701,0.335
				c-0.383,0.074-0.767,0.16-1.146,0.258c-0.25,0.064-0.494,0.154-0.752,0.234c1.136,1.067,3.137,1.968,5.394,1.746
				c1.519-0.147,2.858-0.719,4.015-1.746c-0.509-0.162-1.02-0.298-1.528-0.428c-0.307-0.079-0.635-0.084-0.905-0.282
				c-0.477-0.345-0.752-0.832-0.981-1.365c0.098-0.058,0.188-0.108,0.276-0.16c0.254,0.237,0.535,0.409,0.859,0.493
				c0.925,0.232,1.753-0.081,2.592-0.459c-0.042-0.023-0.064-0.041-0.085-0.047c-0.674-0.217-1.088-0.689-1.296-1.346
				c-0.089-0.283-0.18-0.568-0.115-0.877c0.249-1.231,0.403-2.47,0.23-3.731c-0.078-0.569-0.303-1.086-0.727-1.498
				c-0.237-0.233-0.517-0.367-0.86-0.354C45.757,95.464,45.514,95.59,45.274,95.748z"/>
		</g>
	</g>
	<g id="a8TeVM.tif_5_">
		<g>
			<path fill="#FFFFFF" d="M60.448,141.539c0.332,0,0.662,0,0.991,0c0.191,0.023,0.386,0.047,0.578,0.072
				c1.555,0.225,2.934,0.837,4.113,1.874c1.462,1.277,2.345,2.884,2.641,4.806c0.033,0.223,0.06,0.446,0.089,0.67
				c0,0.329,0,0.66,0,0.988c-0.01,0.051-0.022,0.1-0.03,0.151c-0.099,1.237-0.459,2.394-1.113,3.447
				c-1.262,2.021-3.063,3.265-5.412,3.703c-0.286,0.05-0.578,0.083-0.868,0.125c-0.33,0-0.659,0-0.991,0
				c-0.043-0.011-0.086-0.029-0.133-0.031c-0.991-0.074-1.938-0.319-2.824-0.77c-2.38-1.212-3.836-3.127-4.34-5.756
				c-0.056-0.286-0.082-0.576-0.124-0.87c0-0.328,0-0.659,0-0.988c0.012-0.054,0.026-0.106,0.032-0.164
				c0.062-0.812,0.237-1.598,0.563-2.345c1.154-2.628,3.136-4.235,5.958-4.792C59.867,141.605,60.161,141.58,60.448,141.539z
				 M57.702,148.679c-0.262,0.048-0.374,0.148-0.41,0.419c-0.07,0.531,0.091,0.995,0.45,1.392c0.048,0.057,0.1,0.116,0.131,0.188
				c0.41,0.868,0.886,1.686,1.707,2.251c-0.193,0.449-0.434,0.859-0.792,1.19c-0.225,0.205-0.483,0.339-0.789,0.392
				c-0.368,0.067-0.735,0.154-1.101,0.237c-0.127,0.025-0.252,0.065-0.412,0.115c1.544,1.163,3.245,1.652,5.129,1.489
				c1.394-0.12,2.646-0.614,3.75-1.495c-0.407-0.116-0.809-0.216-1.216-0.297c-0.323-0.066-0.647-0.113-0.917-0.329
				c-0.428-0.348-0.706-0.798-0.913-1.275c0.221-0.207,0.444-0.391,0.64-0.6c0.454-0.486,0.766-1.07,1.051-1.666
				c0.035-0.073,0.083-0.142,0.139-0.196c0.327-0.35,0.476-0.771,0.469-1.239c-0.006-0.374-0.127-0.51-0.448-0.588
				c0.003-0.031,0.009-0.065,0.011-0.102c0.027-0.508,0.089-1.016,0.071-1.522c-0.035-1.04-0.566-1.787-1.485-2.251
				c-0.846-0.428-1.742-0.493-2.665-0.332c-0.487,0.089-0.936,0.271-1.348,0.551c-0.833,0.563-1.148,1.385-1.142,2.352
				C57.618,147.798,57.668,148.234,57.702,148.679z"/>
		</g>
	</g>
	<g id="Pb2SCL.tif_11_">
		<g>
			<path fill="#FFFFFF" d="M60.442,121.415c0.335,0,0.672,0,1.007,0c0.195,0.023,0.391,0.047,0.588,0.076
				c1.58,0.225,2.981,0.85,4.184,1.901c1.485,1.304,2.382,2.936,2.683,4.891c0.035,0.225,0.062,0.453,0.091,0.68
				c0,0.335,0,0.672,0,1.008c-0.009,0.049-0.024,0.102-0.03,0.152c-0.101,1.258-0.468,2.433-1.134,3.504
				c-1.279,2.059-3.112,3.319-5.5,3.765c-0.293,0.056-0.588,0.085-0.883,0.127c-0.334,0-0.671,0-1.007,0
				c-0.045-0.009-0.089-0.027-0.136-0.033c-1.009-0.072-1.971-0.322-2.873-0.78c-2.42-1.231-3.901-3.182-4.415-5.852
				c-0.056-0.292-0.083-0.589-0.124-0.883c0-0.336,0-0.673,0-1.008c0.011-0.056,0.026-0.11,0.03-0.167
				c0.065-0.825,0.243-1.627,0.575-2.385c1.174-2.671,3.189-4.306,6.058-4.871C59.85,121.483,60.147,121.457,60.442,121.415z
				 M62.33,124.972c-0.015-0.011-0.022-0.013-0.025-0.017c-0.025-0.032-0.05-0.067-0.077-0.102
				c-0.244-0.313-0.564-0.517-0.967-0.551c-0.893-0.076-1.752,0.059-2.573,0.432c-0.768,0.348-1.266,0.915-1.433,1.762
				c-0.236,1.208-0.218,2.407,0.116,3.591c0.08,0.282,0.086,0.54,0.019,0.815c-0.19,0.778-0.597,1.365-1.389,1.628
				c-0.018,0.004-0.033,0.019-0.074,0.049c0.29,0.106,0.555,0.22,0.83,0.305c0.512,0.165,1.035,0.243,1.579,0.141
				c0.399-0.074,0.742-0.264,1.042-0.537c0.097,0.06,0.184,0.113,0.273,0.164c-0.113,0.399-0.494,0.979-0.817,1.257
				c-0.204,0.172-0.435,0.279-0.702,0.333c-0.383,0.074-0.766,0.161-1.146,0.26c-0.252,0.062-0.495,0.151-0.753,0.233
				c1.136,1.065,3.136,1.967,5.394,1.744c1.519-0.147,2.859-0.719,4.016-1.744c-0.51-0.163-1.02-0.299-1.53-0.43
				c-0.306-0.076-0.634-0.083-0.904-0.281c-0.476-0.346-0.752-0.83-0.98-1.366c0.099-0.057,0.188-0.108,0.276-0.159
				c0.253,0.236,0.535,0.409,0.86,0.492c0.924,0.232,1.751-0.081,2.591-0.456c-0.042-0.025-0.063-0.042-0.084-0.049
				c-0.675-0.218-1.088-0.689-1.296-1.347c-0.089-0.283-0.181-0.564-0.115-0.876c0.249-1.231,0.403-2.471,0.229-3.73
				c-0.078-0.571-0.304-1.088-0.726-1.499c-0.236-0.23-0.518-0.366-0.859-0.354C62.812,124.688,62.569,124.813,62.33,124.972z"/>
		</g>
	</g>
	<g id="Pb2SCL.tif_9_">
		<g>
			<path fill="#FFFFFF" d="M60.442,102.426c0.335,0,0.671,0,1.006,0c0.194,0.023,0.392,0.047,0.588,0.074
				c1.581,0.225,2.981,0.85,4.184,1.903c1.485,1.302,2.382,2.933,2.684,4.89c0.034,0.226,0.061,0.454,0.091,0.681
				c0,0.335,0,0.672,0,1.005c-0.011,0.051-0.025,0.103-0.031,0.153c-0.1,1.259-0.467,2.435-1.134,3.506
				c-1.279,2.056-3.112,3.319-5.5,3.763c-0.292,0.055-0.587,0.086-0.882,0.129c-0.334,0-0.67,0-1.006,0
				c-0.047-0.011-0.09-0.028-0.136-0.032c-1.01-0.075-1.973-0.325-2.874-0.781c-2.419-1.233-3.901-3.184-4.416-5.854
				c-0.055-0.29-0.082-0.586-0.124-0.883c0-0.333,0-0.67,0-1.005c0.011-0.058,0.026-0.11,0.031-0.168
				c0.064-0.823,0.243-1.628,0.574-2.384c1.174-2.671,3.189-4.305,6.058-4.873C59.849,102.494,60.146,102.466,60.442,102.426z
				 M62.329,105.982c-0.015-0.011-0.022-0.016-0.025-0.018c-0.025-0.034-0.05-0.066-0.076-0.1c-0.245-0.316-0.565-0.518-0.968-0.553
				c-0.893-0.075-1.751,0.059-2.573,0.431c-0.768,0.35-1.266,0.915-1.433,1.765c-0.236,1.207-0.217,2.406,0.115,3.59
				c0.081,0.281,0.087,0.538,0.021,0.815c-0.19,0.776-0.598,1.363-1.39,1.626c-0.018,0.006-0.033,0.021-0.074,0.049
				c0.29,0.108,0.555,0.22,0.83,0.307c0.513,0.163,1.035,0.243,1.578,0.14c0.4-0.076,0.743-0.263,1.042-0.538
				c0.097,0.06,0.186,0.112,0.273,0.164c-0.113,0.401-0.494,0.979-0.817,1.257c-0.204,0.172-0.435,0.279-0.702,0.332
				c-0.383,0.075-0.766,0.163-1.146,0.261c-0.252,0.063-0.496,0.153-0.753,0.232c1.136,1.069,3.137,1.968,5.393,1.745
				c1.519-0.146,2.86-0.72,4.016-1.745c-0.51-0.16-1.02-0.296-1.53-0.427c-0.306-0.079-0.634-0.083-0.903-0.281
				c-0.477-0.348-0.753-0.832-0.981-1.368c0.098-0.058,0.188-0.106,0.276-0.157c0.253,0.235,0.535,0.409,0.86,0.492
				c0.924,0.23,1.751-0.083,2.591-0.458c-0.042-0.025-0.063-0.043-0.084-0.049c-0.675-0.216-1.088-0.688-1.296-1.347
				c-0.088-0.281-0.181-0.565-0.115-0.874c0.249-1.232,0.403-2.473,0.231-3.732c-0.08-0.571-0.304-1.088-0.727-1.5
				c-0.236-0.23-0.518-0.364-0.86-0.354C62.812,105.696,62.569,105.822,62.329,105.982z"/>
		</g>
	</g>
</g>
</svg>
